<?xml version="1.0" encoding="UTF-8" standalone="no"?>
<!-- Created with Inkscape (http://www.inkscape.org/) -->

<svg
   xmlns:dc="http://purl.org/dc/elements/1.1/"
   xmlns:cc="http://creativecommons.org/ns#"
   xmlns:rdf="http://www.w3.org/1999/02/22-rdf-syntax-ns#"
   xmlns:svg="http://www.w3.org/2000/svg"
   xmlns="http://www.w3.org/2000/svg"
   xmlns:sodipodi="http://sodipodi.sourceforge.net/DTD/sodipodi-0.dtd"
   xmlns:inkscape="http://www.inkscape.org/namespaces/inkscape"
   width="193.164mm"
   height="20.277mm"
   viewBox="0 0 193.164 20.277001"
   version="1.1"
   id="svg2245"
   inkscape:version="0.92.2 2405546, 2018-03-11"
   sodipodi:docname="formulas.svg"
   inkscape:export-filename="/home/ch/archiv/PycharmProjects/liblp/doc_etc/for_v.png"
   inkscape:export-xdpi="75.141388"
   inkscape:export-ydpi="75.141388">
  <sodipodi:namedview
     id="base"
     pagecolor="#ffffff"
     bordercolor="#666666"
     borderopacity="1.0"
     inkscape:pageopacity="0.0"
     inkscape:pageshadow="2"
     inkscape:zoom="0.35"
     inkscape:cx="12.299861"
     inkscape:cy="-146.70136"
     inkscape:document-units="mm"
     inkscape:current-layer="layer7"
     showgrid="false"
     inkscape:window-width="1366"
     inkscape:window-height="739"
     inkscape:window-x="0"
     inkscape:window-y="0"
     inkscape:window-maximized="1"
     fit-margin-top="0"
     fit-margin-left="0"
     fit-margin-right="0"
     fit-margin-bottom="0" />
  <defs
     id="defs2239" />
  <metadata
     id="metadata2242">
    <rdf:RDF>
      <cc:Work
         rdf:about="">
        <dc:format>image/svg+xml</dc:format>
        <dc:type
           rdf:resource="http://purl.org/dc/dcmitype/StillImage" />
        <dc:title></dc:title>
      </cc:Work>
    </rdf:RDF>
  </metadata>
  <g
     id="layer1"
     inkscape:groupmode="layer"
     inkscape:label="Layer 1"
     style="display:none"
     transform="translate(-84.996,-87.438)" />
  <g
     inkscape:groupmode="layer"
     id="layer7"
     inkscape:label="jk"
     style="display:none"
     transform="translate(-84.996,-87.438)">
    <g
       transform="translate(6.0476191,96.761906)"
       id="g3281">
      <g
         style="font-style:normal;font-variant:normal;font-weight:normal;font-stretch:normal;letter-spacing:normal;word-spacing:normal;text-anchor:start;fill:none;fill-opacity:1;fill-rule:evenodd;stroke:#000000;stroke-linecap:butt;stroke-linejoin:miter;stroke-miterlimit:10.43299961;stroke-dasharray:none;stroke-dashoffset:0;stroke-opacity:1"
         id="g3279"
         transform="matrix(0.3,0,0,-0.3,-52.5,222.75)"
         xml:space="preserve"
         stroke-miterlimit="10.433"
         font-style="normal"
         font-variant="normal"
         font-weight="normal"
         font-stretch="normal"
         font-size-adjust="none"
         letter-spacing="normal"
         word-spacing="normal"><path
           style="fill:#000000;stroke-width:0"
           inkscape:connector-curvature="0"
           d="m 515.44,450.95 0.03,0.11 0.02,0.11 0.03,0.1 0.03,0.09 0.02,0.09 0.03,0.08 0.03,0.08 0.03,0.08 0.03,0.07 0.03,0.06 0.03,0.06 0.04,0.06 0.04,0.05 0.05,0.05 0.05,0.04 0.05,0.05 0.06,0.03 0.06,0.04 0.07,0.03 0.07,0.02 0.08,0.03 0.09,0.02 0.1,0.02 0.05,0.01 h 0.05 l 0.05,0.01 0.06,0.01 h 0.06 l 0.06,0.01 h 0.06 l 0.07,0.01 h 0.06 l 0.07,0.01 h 0.07 0.08 0.08 0.08 l 0.08,0.01 h 0.08 0.09 0.09 c 0.41,0 0.89,0 0.89,0.73 0,0.38 -0.26,0.52 -0.52,0.52 -0.82,0 -2.92,-0.14 -3.76,-0.14 -0.74,0 -1.91,0.03 -2.69,0.03 -0.86,0.04 -1.87,0.11 -2.75,0.11 -0.23,0 -0.76,0 -0.76,-0.74 0,-0.51 0.31,-0.51 1.36,-0.51 0.81,0 0.93,0 1.81,-0.08 1.01,-0.1 1.12,-0.2 1.12,-0.63 0,-0.23 0,-0.31 -0.14,-0.79 l -4.01,-15.96 c -0.66,-2.62 -2.89,-4.81 -5.16,-4.81 -0.48,0 -2.69,0.11 -3.48,1.81 2.01,0 2.46,1.64 2.46,2.27 0,0.97 -0.82,1.5 -1.59,1.5 -0.94,0 -2.34,-0.77 -2.34,-2.72 0,-2.27 2.12,-3.84 5.06,-3.84 3.41,0 7.28,2.2 8.16,5.68 z"
           id="path3219" /><path
           style="fill:#000000;stroke-width:0"
           inkscape:connector-curvature="0"
           d="m 530.14,426.97 -0.01,-0.05 -0.01,-0.05 -0.02,-0.05 -0.01,-0.06 -0.01,-0.06 -0.02,-0.06 -0.03,-0.11 -0.02,-0.12 -0.03,-0.12 -0.03,-0.12 -0.03,-0.12 -0.01,-0.06 -0.01,-0.05 -0.02,-0.06 -0.01,-0.05 -0.01,-0.05 -0.01,-0.05 -0.01,-0.05 -0.01,-0.04 v -0.04 l -0.01,-0.04 -0.01,-0.04 v -0.03 l -0.01,-0.03 v -0.02 -0.03 -0.02 c 0,-0.54 0.45,-0.87 0.92,-0.87 0.37,0 0.92,0.2 1.2,0.83 0.02,0.12 0.31,1.29 0.47,1.94 0.84,3.37 0.84,3.42 0.89,3.51 0.33,0.67 2.13,4.16 5.16,4.16 1.22,0 1.75,-0.67 1.75,-1.78 0,-1.43 -1.05,-3.99 -1.63,-5.41 -0.12,-0.3 -0.25,-0.63 -0.25,-1.05 0,-1.29 1.25,-2.2 2.72,-2.2 2.67,0 4.03,3.25 4.03,3.87 0,0.35 -0.42,0.35 -0.51,0.35 -0.43,0 -0.46,-0.1 -0.6,-0.58 -0.48,-1.48 -1.62,-2.78 -2.83,-2.78 -0.56,0 -0.73,0.39 -0.73,0.94 0,0.53 0.09,0.78 0.31,1.32 0.42,1 1.58,3.83 1.58,5.21 0,1.84 -1.33,2.97 -3.69,2.97 -2.31,0 -3.93,-1.43 -4.93,-2.75 -0.22,2.54 -2.69,2.75 -3.71,2.75 -2.45,0 -3.84,-1.53 -4.73,-2.47 -0.11,2.19 -2.39,2.47 -3.02,2.47 -2.5,0 -3.22,-3.82 -3.22,-3.86 0,-0.36 0.41,-0.36 0.54,-0.36 0.42,0 0.46,0.15 0.56,0.48 0.37,1.44 0.95,2.88 2,2.88 0.84,0 1.01,-0.8 1.01,-1.32 0,-0.34 -0.25,-1.29 -0.39,-1.93 -0.18,-0.67 -0.42,-1.71 -0.54,-2.25 l -0.58,-2.22 c -0.16,-0.63 -0.42,-1.72 -0.42,-1.85 0,-0.54 0.43,-0.87 0.92,-0.87 0.37,0 0.92,0.2 1.19,0.83 0.03,0.12 0.32,1.29 0.48,1.94 0.09,0.4 0.37,1.46 0.44,1.71 0.12,0.57 0.28,1.11 0.4,1.68 0.05,0.11 0.94,1.92 2.16,3 0.41,0.34 1.45,1.28 3.08,1.28 1.26,0 1.73,-0.72 1.73,-1.78 0,-0.55 -0.25,-1.55 -0.45,-2.33 z"
           id="path3221" /><path
           style="fill:#000000;stroke-width:0"
           inkscape:connector-curvature="0"
           d="m 562.09,455.98 -0.6,-0.45 -0.58,-0.46 -0.55,-0.47 -0.53,-0.49 -0.5,-0.5 -0.47,-0.51 -0.45,-0.53 -0.42,-0.53 -0.4,-0.54 -0.37,-0.55 -0.36,-0.56 -0.33,-0.56 -0.31,-0.57 -0.28,-0.57 -0.27,-0.58 -0.25,-0.58 -0.23,-0.58 -0.2,-0.58 -0.2,-0.59 -0.17,-0.58 -0.15,-0.58 -0.14,-0.58 -0.13,-0.57 -0.1,-0.57 -0.1,-0.57 -0.08,-0.56 -0.06,-0.55 -0.05,-0.54 -0.04,-0.54 -0.03,-0.53 -0.02,-0.51 v -0.51 c 0,-4.92 1.47,-12.55 8.37,-17.42 0.29,0 0.69,0 0.69,0.4 0,0.22 -0.09,0.29 -0.34,0.54 -4.64,4.18 -6.35,10.1 -6.35,16.45 0,9.4 3.6,14 6.46,16.58 0.14,0.14 0.23,0.25 0.23,0.42 0,0.42 -0.4,0.42 -0.69,0.42 z"
           id="path3223" /><path
           style="fill:#000000;stroke-width:0"
           inkscape:connector-curvature="0"
           d="m 580.05,435.48 -0.02,-0.07 -0.01,-0.07 -0.02,-0.07 -0.02,-0.07 -0.02,-0.08 -0.02,-0.08 -0.02,-0.08 -0.02,-0.09 -0.04,-0.16 -0.04,-0.17 -0.04,-0.17 -0.02,-0.08 -0.02,-0.08 -0.02,-0.08 -0.02,-0.07 -0.02,-0.08 -0.02,-0.07 -0.02,-0.06 -0.02,-0.07 -0.01,-0.06 -0.02,-0.05 -0.01,-0.05 -0.02,-0.04 -0.01,-0.04 -0.01,-0.04 -0.01,-0.01 v -0.01 l -0.01,-0.02 v -0.01 h -0.01 v -0.01 0 l -0.01,-0.01 c -0.67,-1.07 -2.06,-2.97 -4.22,-2.97 -2.4,0 -2.4,2.27 -2.4,2.9 0,2.06 0.97,4.53 1.95,7.07 0.28,0.71 0.49,1.22 0.49,1.78 0,1.82 -1.54,2.99 -3.32,2.99 -3.48,0 -5.04,-4.77 -5.04,-5.33 0,-0.45 0.48,-0.45 0.59,-0.45 0.48,0 0.52,0.17 0.63,0.56 0.82,2.86 2.37,4.25 3.72,4.25 0.59,0 0.87,-0.39 0.87,-1.22 0,-0.8 -0.28,-1.53 -0.62,-2.33 -1.88,-4.81 -1.88,-5.82 -1.88,-6.76 0,-0.6 0,-2.21 1.28,-3.31 1.02,-0.83 2.38,-1.11 3.6,-1.11 2.18,0 3.37,1.18 4.53,2.29 0.76,-2.23 3.09,-2.29 3.51,-2.29 1.19,0 2.09,0.68 2.75,1.84 0.77,1.36 1.25,3.37 1.25,3.48 0,0.46 -0.48,0.46 -0.58,0.46 -0.5,0 -0.53,-0.14 -0.78,-1.08 -0.4,-1.64 -1.08,-3.74 -2.53,-3.74 -0.9,0 -1.15,0.8 -1.15,1.71 0,0.59 0.28,1.86 0.53,2.76 0.23,0.94 0.57,2.36 0.76,3.13 l 0.8,3.11 c 0.2,0.87 0.59,2.4 0.59,2.58 0,0.68 -0.56,1.11 -1.15,1.11 -1.28,0 -1.53,-1.02 -1.82,-2.13 z"
           id="path3225" /><path
           style="fill:#000000;stroke-width:0"
           inkscape:connector-curvature="0"
           d="m 591.98,455.98 h -0.03 -0.02 -0.03 -0.02 -0.03 -0.03 -0.03 l -0.02,-0.01 h -0.03 -0.03 l -0.03,-0.01 h -0.03 l -0.02,-0.01 -0.03,-0.01 h -0.03 l -0.02,-0.01 -0.03,-0.01 -0.02,-0.01 -0.03,-0.02 -0.02,-0.01 -0.02,-0.02 -0.02,-0.02 -0.02,-0.02 -0.01,-0.01 -0.01,-0.01 v -0.01 l -0.01,-0.01 -0.01,-0.01 v -0.02 l -0.01,-0.01 -0.01,-0.01 v -0.02 l -0.01,-0.01 v -0.02 -0.01 l -0.01,-0.02 v -0.02 -0.01 -0.02 -0.02 l -0.01,-0.02 c 0,-0.17 0.11,-0.28 0.32,-0.53 3,-2.75 6.34,-7.46 6.34,-16.44 0,-7.28 -2.26,-12.8 -6.03,-16.2 -0.58,-0.6 -0.63,-0.63 -0.63,-0.82 0,-0.17 0.11,-0.4 0.46,-0.4 0.42,0 3.73,2.29 6.03,6.65 1.53,2.89 2.55,6.66 2.55,10.74 0,4.9 -1.47,12.53 -8.36,17.42 z"
           id="path3227" /><polyline
           style="fill:#000000;fill-rule:nonzero;stroke-width:0"
           points="462,417 637.92,417 637.92,419.04 462,419.04 "
           id="polyline3229" /><path
           style="fill:#000000;stroke-width:0"
           inkscape:connector-curvature="0"
           d="m 476.25,394.2 -0.01,-0.07 -0.02,-0.07 -0.02,-0.07 -0.02,-0.07 -0.02,-0.08 -0.01,-0.08 -0.02,-0.08 -0.03,-0.09 -0.04,-0.16 -0.04,-0.17 -0.04,-0.17 -0.02,-0.08 -0.02,-0.08 -0.02,-0.08 -0.02,-0.07 -0.02,-0.08 -0.02,-0.07 -0.02,-0.06 -0.01,-0.07 -0.02,-0.06 -0.02,-0.05 -0.01,-0.05 -0.01,-0.05 -0.02,-0.04 -0.01,-0.03 v -0.01 l -0.01,-0.02 v -0.01 l -0.01,-0.01 v -0.01 h -0.01 v -0.01 0 c -0.67,-1.08 -2.07,-2.97 -4.22,-2.97 -2.41,0 -2.41,2.27 -2.41,2.89 0,2.07 0.97,4.54 1.96,7.08 0.28,0.71 0.48,1.22 0.48,1.78 0,1.82 -1.53,2.99 -3.31,2.99 -3.49,0 -5.05,-4.77 -5.05,-5.33 0,-0.45 0.48,-0.45 0.59,-0.45 0.49,0 0.52,0.17 0.63,0.56 0.83,2.86 2.37,4.25 3.72,4.25 0.59,0 0.87,-0.39 0.87,-1.22 0,-0.8 -0.28,-1.53 -0.62,-2.33 -1.88,-4.81 -1.88,-5.83 -1.88,-6.76 0,-0.6 0,-2.21 1.28,-3.32 1.02,-0.82 2.38,-1.11 3.6,-1.11 2.19,0 3.37,1.19 4.53,2.3 0.76,-2.23 3.09,-2.3 3.51,-2.3 1.19,0 2.1,0.69 2.75,1.85 0.77,1.36 1.25,3.37 1.25,3.48 0,0.46 -0.48,0.46 -0.57,0.46 -0.5,0 -0.53,-0.14 -0.78,-1.08 -0.41,-1.64 -1.08,-3.74 -2.54,-3.74 -0.9,0 -1.15,0.8 -1.15,1.71 0,0.59 0.28,1.86 0.53,2.76 0.23,0.94 0.58,2.36 0.76,3.13 l 0.8,3.11 c 0.2,0.87 0.6,2.4 0.6,2.57 0,0.69 -0.57,1.11 -1.16,1.11 -1.28,0 -1.53,-1.01 -1.81,-2.12 z"
           id="path3231" /><path
           style="fill:#000000;stroke-width:0"
           inkscape:connector-curvature="0"
           d="m 505.84,409.67 0.02,0.11 0.03,0.11 0.03,0.1 0.02,0.09 0.03,0.09 0.03,0.08 0.03,0.08 0.02,0.08 0.03,0.07 0.04,0.06 0.03,0.06 0.04,0.06 0.04,0.05 0.05,0.05 0.04,0.04 0.06,0.04 0.05,0.04 0.07,0.03 0.07,0.03 0.07,0.03 0.08,0.03 0.09,0.02 0.09,0.02 h 0.05 l 0.06,0.01 0.05,0.01 0.06,0.01 h 0.06 l 0.06,0.01 h 0.06 l 0.06,0.01 h 0.07 0.07 l 0.07,0.01 h 0.08 0.07 0.08 0.09 0.08 0.09 l 0.09,0.01 c 0.4,0 0.89,0 0.89,0.73 0,0.37 -0.27,0.52 -0.52,0.52 -0.82,0 -2.92,-0.15 -3.76,-0.15 -0.74,0 -1.91,0.04 -2.69,0.04 -0.86,0.04 -1.87,0.11 -2.75,0.11 -0.23,0 -0.77,0 -0.77,-0.74 0,-0.51 0.32,-0.51 1.36,-0.51 0.82,0 0.94,0 1.82,-0.08 1.01,-0.1 1.12,-0.21 1.12,-0.63 0,-0.23 0,-0.31 -0.14,-0.79 l -4.01,-15.96 c -0.66,-2.62 -2.9,-4.81 -5.16,-4.81 -0.49,0 -2.69,0.11 -3.49,1.81 2.02,0 2.47,1.64 2.47,2.27 0,0.97 -0.82,1.5 -1.59,1.5 -0.94,0 -2.34,-0.77 -2.34,-2.72 0,-2.27 2.12,-3.84 5.06,-3.84 3.4,0 7.28,2.2 8.15,5.68 z"
           id="path3233" /><path
           style="fill:#000000;stroke-width:0"
           inkscape:connector-curvature="0"
           d="m 520.54,385.69 -0.01,-0.05 -0.01,-0.05 -0.01,-0.06 -0.02,-0.05 -0.01,-0.06 -0.02,-0.06 -0.02,-0.12 -0.03,-0.12 -0.03,-0.12 -0.03,-0.12 -0.03,-0.11 -0.01,-0.06 -0.01,-0.06 -0.01,-0.05 -0.02,-0.05 -0.01,-0.05 -0.01,-0.05 -0.01,-0.05 v -0.04 l -0.01,-0.04 -0.01,-0.04 -0.01,-0.04 v -0.03 l -0.01,-0.03 v -0.03 -0.02 -0.02 c 0,-0.54 0.45,-0.87 0.92,-0.87 0.38,0 0.92,0.2 1.2,0.83 0.02,0.12 0.32,1.29 0.47,1.93 0.85,3.38 0.85,3.43 0.89,3.52 0.33,0.67 2.13,4.16 5.16,4.16 1.22,0 1.75,-0.68 1.75,-1.79 0,-1.42 -1.05,-3.98 -1.62,-5.4 -0.13,-0.3 -0.25,-0.63 -0.25,-1.05 0,-1.3 1.25,-2.2 2.71,-2.2 2.67,0 4.04,3.25 4.04,3.87 0,0.35 -0.43,0.35 -0.52,0.35 -0.42,0 -0.45,-0.1 -0.6,-0.58 -0.48,-1.49 -1.62,-2.78 -2.82,-2.78 -0.56,0 -0.74,0.39 -0.74,0.94 0,0.53 0.1,0.78 0.31,1.32 0.43,1 1.58,3.83 1.58,5.21 0,1.84 -1.33,2.97 -3.68,2.97 -2.32,0 -3.94,-1.43 -4.94,-2.75 -0.22,2.54 -2.69,2.75 -3.71,2.75 -2.45,0 -3.84,-1.54 -4.73,-2.47 -0.11,2.18 -2.39,2.47 -3.02,2.47 -2.49,0 -3.21,-3.82 -3.21,-3.86 0,-0.36 0.4,-0.36 0.53,-0.36 0.42,0 0.47,0.15 0.56,0.48 0.38,1.44 0.95,2.88 2,2.88 0.84,0 1.02,-0.8 1.02,-1.32 0,-0.34 -0.25,-1.29 -0.4,-1.93 -0.18,-0.68 -0.42,-1.71 -0.54,-2.25 l -0.58,-2.22 c -0.16,-0.63 -0.42,-1.72 -0.42,-1.85 0,-0.54 0.44,-0.87 0.92,-0.87 0.37,0 0.92,0.2 1.19,0.83 0.03,0.12 0.33,1.29 0.48,1.93 0.1,0.41 0.38,1.47 0.44,1.72 0.13,0.57 0.28,1.11 0.41,1.67 0.04,0.11 0.93,1.93 2.15,3 0.41,0.35 1.45,1.29 3.08,1.29 1.27,0 1.74,-0.72 1.74,-1.79 0,-0.54 -0.25,-1.54 -0.46,-2.32 z"
           id="path3235" /><path
           style="fill:#000000;stroke-width:0"
           inkscape:connector-curvature="0"
           d="m 551.22,389.05 h 8.67 c 0.33,0 1,0 1,0.7 0,0.69 -0.67,0.69 -1,0.69 h -8.67 v 8.67 c 0,0.35 0,1.02 -0.7,1.02 -0.69,0 -0.69,-0.67 -0.69,-1.02 v -8.67 h -8.71 c -0.31,0 -0.98,0 -0.98,-0.69 0,-0.7 0.67,-0.7 0.98,-0.7 h 8.71 v -8.67 c 0,-0.34 0,-1.02 0.69,-1.02 0.7,0 0.7,0.68 0.7,1.02 z"
           id="path3237" /><path
           style="fill:#000000;stroke-width:0"
           inkscape:connector-curvature="0"
           d="m 573.2,399.36 v 0.04 0.03 0.03 0.04 0.03 0.02 0.03 l -0.01,0.03 v 0.03 0.02 0.03 0.02 l -0.01,0.02 v 0.03 0.02 l -0.01,0.02 v 0.02 0.01 l -0.01,0.04 -0.02,0.03 -0.01,0.03 -0.01,0.03 -0.02,0.02 -0.02,0.02 -0.02,0.02 -0.03,0.02 -0.02,0.01 -0.03,0.01 -0.04,0.01 -0.03,0.01 -0.04,0.01 -0.04,0.01 h -0.02 -0.03 -0.02 l -0.02,0.01 h -0.03 -0.03 -0.02 -0.03 -0.03 -0.03 -0.03 -0.03 -0.04 -0.03 -0.04 -0.03 -0.04 -0.04 c -1.76,-1.59 -4.53,-1.59 -5.03,-1.59 h -0.42 v -1.09 h 0.42 c 0.58,0 2.19,0.06 3.64,0.68 v -12.45 c 0,-0.77 0,-1.05 -2.64,-1.05 h -1.25 v -1.09 c 1.38,0.09 3.59,0.09 5.03,0.09 1.46,0 3.68,0 5.03,-0.09 v 1.09 h -1.23 c -2.64,0 -2.64,0.28 -2.64,1.05 z"
           id="path3239" /><path
           style="fill:#000000;stroke-width:0"
           inkscape:connector-curvature="0"
           d="m 595.09,414.7 -0.6,-0.45 -0.58,-0.46 -0.55,-0.47 -0.53,-0.49 -0.5,-0.5 -0.47,-0.51 -0.45,-0.53 -0.42,-0.53 -0.4,-0.54 -0.37,-0.55 -0.36,-0.56 -0.33,-0.56 -0.31,-0.57 -0.28,-0.57 -0.27,-0.58 -0.25,-0.58 -0.23,-0.58 -0.2,-0.58 -0.2,-0.59 -0.17,-0.58 -0.15,-0.58 -0.14,-0.58 -0.13,-0.57 -0.1,-0.57 -0.1,-0.57 -0.08,-0.56 -0.06,-0.55 -0.05,-0.55 -0.04,-0.53 -0.03,-0.53 -0.02,-0.52 v -0.5 c 0,-4.92 1.47,-12.55 8.37,-17.42 0.29,0 0.69,0 0.69,0.4 0,0.22 -0.09,0.28 -0.34,0.53 -4.64,4.19 -6.35,10.11 -6.35,16.46 0,9.4 3.6,14 6.46,16.58 0.14,0.14 0.23,0.25 0.23,0.42 0,0.42 -0.4,0.42 -0.69,0.42 z"
           id="path3241" /><path
           style="fill:#000000;stroke-width:0"
           inkscape:connector-curvature="0"
           d="m 613.05,394.2 -0.02,-0.07 -0.01,-0.07 -0.02,-0.07 -0.02,-0.07 -0.02,-0.08 -0.02,-0.08 -0.02,-0.08 -0.02,-0.09 -0.04,-0.16 -0.04,-0.17 -0.04,-0.17 -0.02,-0.08 -0.02,-0.08 -0.02,-0.08 -0.02,-0.07 -0.02,-0.08 -0.02,-0.07 -0.02,-0.06 -0.02,-0.07 -0.01,-0.06 -0.02,-0.05 -0.01,-0.05 -0.02,-0.05 -0.01,-0.04 -0.01,-0.03 -0.01,-0.01 v -0.02 l -0.01,-0.01 v -0.01 l -0.01,-0.01 v 0 -0.01 h -0.01 c -0.67,-1.08 -2.06,-2.97 -4.22,-2.97 -2.4,0 -2.4,2.27 -2.4,2.89 0,2.07 0.97,4.54 1.95,7.08 0.28,0.71 0.49,1.22 0.49,1.78 0,1.82 -1.54,2.99 -3.32,2.99 -3.48,0 -5.04,-4.77 -5.04,-5.33 0,-0.45 0.48,-0.45 0.59,-0.45 0.48,0 0.52,0.17 0.63,0.56 0.82,2.86 2.37,4.25 3.72,4.25 0.59,0 0.87,-0.39 0.87,-1.22 0,-0.8 -0.28,-1.53 -0.62,-2.33 -1.88,-4.81 -1.88,-5.83 -1.88,-6.76 0,-0.6 0,-2.21 1.28,-3.32 1.02,-0.82 2.38,-1.11 3.6,-1.11 2.18,0 3.37,1.19 4.53,2.3 0.76,-2.23 3.09,-2.3 3.51,-2.3 1.19,0 2.09,0.69 2.75,1.85 0.77,1.36 1.25,3.37 1.25,3.48 0,0.46 -0.48,0.46 -0.58,0.46 -0.5,0 -0.53,-0.14 -0.78,-1.08 -0.4,-1.64 -1.08,-3.74 -2.53,-3.74 -0.9,0 -1.15,0.8 -1.15,1.71 0,0.59 0.28,1.86 0.53,2.76 0.23,0.94 0.57,2.36 0.76,3.13 l 0.8,3.11 c 0.2,0.87 0.59,2.4 0.59,2.57 0,0.69 -0.56,1.11 -1.15,1.11 -1.28,0 -1.53,-1.01 -1.82,-2.12 z"
           id="path3243" /><path
           style="fill:#000000;stroke-width:0"
           inkscape:connector-curvature="0"
           d="m 624.98,414.7 h -0.03 -0.02 -0.03 -0.02 -0.03 -0.03 l -0.03,-0.01 h -0.02 -0.03 -0.03 l -0.03,-0.01 h -0.03 l -0.02,-0.01 -0.03,-0.01 h -0.03 l -0.02,-0.01 -0.03,-0.01 -0.02,-0.02 -0.03,-0.01 -0.02,-0.01 -0.02,-0.02 -0.02,-0.02 -0.02,-0.02 -0.01,-0.01 -0.01,-0.01 v -0.01 l -0.01,-0.01 -0.01,-0.01 v -0.02 l -0.01,-0.01 -0.01,-0.01 v -0.02 l -0.01,-0.01 v -0.02 -0.02 l -0.01,-0.01 v -0.02 -0.02 -0.01 -0.02 l -0.01,-0.02 c 0,-0.17 0.11,-0.28 0.32,-0.53 3,-2.75 6.34,-7.46 6.34,-16.44 0,-7.28 -2.26,-12.8 -6.03,-16.2 -0.58,-0.6 -0.63,-0.63 -0.63,-0.82 0,-0.17 0.11,-0.4 0.46,-0.4 0.42,0 3.73,2.29 6.03,6.65 1.53,2.89 2.55,6.66 2.55,10.74 0,4.9 -1.47,12.53 -8.36,17.42 z"
           id="path3245" /><path
           style="fill:#000000;stroke-width:0"
           inkscape:connector-curvature="0"
           d="m 691.47,422.02 h 0.14 0.15 0.14 l 0.07,0.01 h 0.08 l 0.07,0.01 0.07,0.01 0.07,0.01 0.07,0.01 0.07,0.01 0.06,0.02 0.07,0.02 0.06,0.02 0.06,0.02 0.06,0.03 0.06,0.03 0.05,0.04 0.05,0.03 0.05,0.05 0.04,0.04 0.04,0.05 0.02,0.03 0.02,0.03 0.01,0.02 0.02,0.03 0.01,0.03 0.01,0.04 0.02,0.03 0.01,0.04 0.01,0.03 0.01,0.04 v 0.04 l 0.01,0.04 v 0.04 l 0.01,0.04 v 0.04 0.05 c 0,1 -0.95,1 -1.64,1 h -29.84 c -0.71,0 -1.65,0 -1.65,-1 0,-0.98 0.94,-0.98 1.69,-0.98 z"
           id="path3247" /><path
           style="fill:#000000;stroke-width:0"
           inkscape:connector-curvature="0"
           d="m 691.52,412.34 h 0.07 0.06 l 0.14,0.01 h 0.14 0.07 l 0.07,0.01 0.07,0.01 h 0.06 l 0.07,0.01 0.07,0.02 0.07,0.01 0.06,0.02 0.07,0.02 0.06,0.02 0.06,0.02 0.05,0.03 0.06,0.03 0.05,0.04 0.05,0.04 0.05,0.04 0.04,0.05 0.02,0.02 0.02,0.03 0.02,0.02 0.02,0.03 0.01,0.03 0.02,0.03 0.01,0.03 0.01,0.03 0.02,0.04 0.01,0.03 0.01,0.04 0.01,0.04 v 0.04 l 0.01,0.04 v 0.04 l 0.01,0.04 v 0.05 0.04 c 0,1 -0.95,1 -1.69,1 h -29.75 c -0.75,0 -1.69,0 -1.69,-1 0,-1 0.94,-1 1.65,-1 z"
           id="path3249" /><path
           style="fill:#000000;stroke-width:0"
           inkscape:connector-curvature="0"
           d="m 771.86,443.84 -0.01,0.03 -0.02,0.02 -0.01,0.02 -0.01,0.03 -0.01,0.02 -0.01,0.02 -0.01,0.02 -0.01,0.02 -0.01,0.02 -0.01,0.02 -0.01,0.01 -0.01,0.02 -0.01,0.01 -0.01,0.02 -0.01,0.01 v 0.01 l -0.01,0.02 -0.01,0.01 v 0.01 l -0.01,0.01 v 0.01 l -0.01,0.01 v 0 0.01 l -0.01,0.01 v 0.01 0 l -0.01,0.01 v 0 0.01 0 0 c 0,0.08 0.03,0.11 0.84,0.67 l 3.52,2.47 c 4.59,3.24 6.77,4.77 9.23,4.99 0.38,0.03 0.8,0.06 0.8,0.76 0,0.28 -0.23,0.46 -0.45,0.46 -0.74,0 -1.64,-0.11 -2.41,-0.11 -0.94,0 -3.26,0.14 -4.2,0.14 -0.22,0 -0.74,0 -0.74,-0.77 0,-0.03 0,-0.45 0.52,-0.48 0.42,-0.03 0.87,-0.11 0.87,-0.49 0,-0.64 -1.07,-1.4 -1.53,-1.72 l -14.53,-10.23 2.75,10.97 c 0.31,1.19 0.35,1.47 3.07,1.47 0.56,0 1.04,0 1.04,0.73 0,0.31 -0.2,0.52 -0.56,0.52 -1,0 -3.55,-0.14 -4.56,-0.14 -0.6,0 -1.82,0 -2.41,0.03 -0.69,0.04 -1.53,0.11 -2.19,0.11 -0.2,0 -0.73,0 -0.73,-0.77 0,-0.48 0.39,-0.48 1.15,-0.48 0.55,0 0.69,0 1.32,-0.08 0.7,-0.06 0.78,-0.14 0.78,-0.49 0,-0.06 0,-0.23 -0.14,-0.76 l -4.64,-18.5 c -0.28,-1.19 -0.35,-1.47 -3.06,-1.47 -0.63,0 -1.05,0 -1.05,-0.77 0,-0.03 0,-0.48 0.56,-0.48 1,0 3.52,0.14 4.52,0.14 0.59,0 1.81,0 2.4,-0.03 0.71,-0.05 1.58,-0.11 2.24,-0.11 0.2,0 0.73,0 0.73,0.77 0,0.48 -0.42,0.48 -1.11,0.48 -0.05,0 -0.7,0 -1.33,0.08 -0.81,0.06 -0.81,0.17 -0.81,0.51 0,0.28 0.36,1.58 1.64,6.69 l 5.78,4.08 5.07,-9.78 c 0.23,-0.46 0.23,-0.5 0.23,-0.67 0,-0.8 -0.97,-0.91 -1.59,-0.91 -0.43,0 -0.91,0 -0.91,-0.77 0,-0.03 0.03,-0.48 0.59,-0.48 0.97,0 3.49,0.14 4.46,0.14 1.04,0 2.43,-0.14 3.42,-0.14 0.45,0 0.69,0.25 0.69,0.73 0,0.52 -0.46,0.52 -0.8,0.52 -0.63,0 -1.7,0.05 -2.3,1.16 z"
           id="path3251" /><path
           style="fill:#000000;stroke-width:0"
           inkscape:connector-curvature="0"
           d="m 798.82,426.97 -0.01,-0.05 -0.01,-0.05 -0.02,-0.05 -0.01,-0.06 -0.01,-0.06 -0.02,-0.06 -0.03,-0.11 -0.02,-0.12 -0.03,-0.12 -0.03,-0.12 -0.03,-0.12 -0.01,-0.06 -0.01,-0.05 -0.02,-0.06 -0.01,-0.05 -0.01,-0.05 -0.01,-0.05 -0.01,-0.05 -0.01,-0.04 v -0.04 l -0.01,-0.04 -0.01,-0.04 v -0.03 l -0.01,-0.03 v -0.02 -0.03 -0.02 c 0,-0.54 0.45,-0.87 0.92,-0.87 0.37,0 0.92,0.2 1.2,0.83 0.02,0.12 0.31,1.29 0.47,1.94 0.84,3.37 0.84,3.42 0.89,3.51 0.33,0.67 2.13,4.16 5.16,4.16 1.22,0 1.75,-0.67 1.75,-1.78 0,-1.43 -1.05,-3.99 -1.63,-5.41 -0.12,-0.3 -0.25,-0.63 -0.25,-1.05 0,-1.29 1.25,-2.2 2.72,-2.2 2.67,0 4.03,3.25 4.03,3.87 0,0.35 -0.42,0.35 -0.51,0.35 -0.43,0 -0.46,-0.1 -0.6,-0.58 -0.48,-1.48 -1.62,-2.78 -2.83,-2.78 -0.56,0 -0.73,0.39 -0.73,0.94 0,0.53 0.09,0.78 0.31,1.32 0.42,1 1.58,3.83 1.58,5.21 0,1.84 -1.33,2.97 -3.69,2.97 -2.31,0 -3.93,-1.43 -4.93,-2.75 -0.22,2.54 -2.69,2.75 -3.71,2.75 -2.45,0 -3.84,-1.53 -4.73,-2.47 -0.11,2.19 -2.39,2.47 -3.02,2.47 -2.5,0 -3.22,-3.82 -3.22,-3.86 0,-0.36 0.41,-0.36 0.54,-0.36 0.42,0 0.46,0.15 0.56,0.48 0.37,1.44 0.95,2.88 2,2.88 0.84,0 1.01,-0.8 1.01,-1.32 0,-0.34 -0.25,-1.29 -0.39,-1.93 -0.18,-0.67 -0.42,-1.71 -0.54,-2.25 l -0.58,-2.22 c -0.16,-0.63 -0.42,-1.72 -0.42,-1.85 0,-0.54 0.43,-0.87 0.92,-0.87 0.37,0 0.92,0.2 1.19,0.83 0.03,0.12 0.32,1.29 0.48,1.94 0.09,0.4 0.37,1.46 0.44,1.71 0.12,0.57 0.28,1.11 0.4,1.68 0.05,0.11 0.94,1.92 2.16,3 0.41,0.34 1.45,1.28 3.08,1.28 1.26,0 1.73,-0.72 1.73,-1.78 0,-0.55 -0.25,-1.55 -0.45,-2.33 z"
           id="path3253" /><path
           style="fill:#000000;stroke-width:0"
           inkscape:connector-curvature="0"
           d="m 830.9,455.98 -0.61,-0.45 -0.58,-0.46 -0.55,-0.47 -0.53,-0.49 -0.5,-0.5 -0.47,-0.51 -0.45,-0.53 -0.42,-0.53 -0.4,-0.54 -0.37,-0.55 -0.36,-0.56 -0.33,-0.56 -0.31,-0.57 -0.28,-0.57 -0.27,-0.58 -0.25,-0.58 -0.22,-0.58 -0.21,-0.58 -0.19,-0.59 -0.18,-0.58 -0.15,-0.58 -0.14,-0.58 -0.13,-0.57 -0.1,-0.57 -0.1,-0.57 -0.07,-0.56 -0.07,-0.55 -0.05,-0.54 -0.04,-0.54 -0.03,-0.53 -0.01,-0.51 -0.01,-0.51 c 0,-4.92 1.47,-12.55 8.38,-17.42 0.28,0 0.68,0 0.68,0.4 0,0.22 -0.09,0.29 -0.34,0.54 -4.64,4.18 -6.34,10.1 -6.34,16.45 0,9.4 3.59,14 6.45,16.58 0.14,0.14 0.23,0.25 0.23,0.42 0,0.42 -0.4,0.42 -0.68,0.42 z"
           id="path3255" /><path
           style="fill:#000000;stroke-width:0"
           inkscape:connector-curvature="0"
           d="m 852.45,440.95 0.02,0.09 0.02,0.1 0.03,0.09 0.03,0.11 0.02,0.1 0.03,0.11 0.05,0.21 0.06,0.23 0.05,0.22 0.06,0.22 0.02,0.1 0.03,0.11 0.02,0.1 0.03,0.1 0.02,0.1 0.02,0.1 0.02,0.09 0.02,0.08 0.02,0.08 0.01,0.08 0.02,0.07 0.01,0.07 0.01,0.05 0.01,0.06 0.01,0.04 0.01,0.04 v 0.01 0.02 0.01 0.01 c 0,0.68 -0.55,1.11 -1.14,1.11 -0.67,0 -1.3,-0.43 -1.5,-1.02 -0.11,-0.27 -0.45,-1.73 -0.7,-2.61 -0.49,-1.98 -0.49,-2.05 -1,-4 -0.46,-1.92 -0.53,-2.2 -0.56,-3.2 0.14,-0.71 -0.15,-1.36 -0.99,-2.41 -0.44,-0.56 -1.14,-1.16 -2.33,-1.16 -1.36,0 -3.14,0.49 -3.14,3.21 0,1.78 0.99,4.36 1.67,6.14 0.6,1.53 0.74,1.84 0.74,2.44 0,1.67 -1.42,2.95 -3.31,2.95 -3.52,0 -5.08,-4.74 -5.08,-5.33 0,-0.45 0.48,-0.45 0.59,-0.45 0.49,0 0.52,0.17 0.63,0.56 0.87,2.89 2.37,4.25 3.76,4.25 0.6,0 0.86,-0.39 0.86,-1.22 0,-0.8 -0.31,-1.56 -0.48,-2.01 -1.99,-5.1 -1.99,-5.8 -1.99,-6.88 0,-4.11 3.74,-4.62 5.61,-4.62 0.67,0 2.38,0 3.94,2.32 0.8,-1.56 2.72,-2.32 4.84,-2.32 3.11,0 4.64,2.67 5.33,4.11 1.5,2.92 2.44,7.28 2.44,8.89 0,2.61 -1.49,2.75 -1.74,2.75 -0.9,0 -1.87,-0.96 -1.87,-1.86 0,-0.58 0.34,-0.86 0.58,-1.08 0.84,-0.69 1.29,-1.67 1.29,-2.78 0,-0.46 -1.46,-9.07 -5.89,-9.07 -2.82,0 -2.82,2.52 -2.82,3.11 0,0.94 0.14,1.5 0.64,3.49 z"
           id="path3257" /><path
           style="fill:#000000;stroke-width:0"
           inkscape:connector-curvature="0"
           d="m 867.02,455.98 h -0.03 -0.02 -0.03 -0.02 -0.03 -0.03 -0.03 l -0.02,-0.01 h -0.03 -0.03 l -0.03,-0.01 h -0.03 l -0.02,-0.01 -0.03,-0.01 h -0.03 l -0.02,-0.01 -0.03,-0.01 -0.02,-0.01 -0.03,-0.02 -0.02,-0.01 -0.02,-0.02 -0.02,-0.02 -0.02,-0.02 -0.01,-0.01 -0.01,-0.01 v -0.01 l -0.01,-0.01 -0.01,-0.01 -0.01,-0.02 v -0.01 l -0.01,-0.01 v -0.02 l -0.01,-0.01 v -0.02 l -0.01,-0.01 v -0.02 -0.02 -0.01 -0.02 l -0.01,-0.02 v -0.02 c 0,-0.17 0.11,-0.28 0.32,-0.53 3,-2.75 6.34,-7.46 6.34,-16.44 0,-7.28 -2.27,-12.8 -6.03,-16.2 -0.58,-0.6 -0.63,-0.63 -0.63,-0.82 0,-0.17 0.11,-0.4 0.46,-0.4 0.42,0 3.73,2.29 6.03,6.65 1.53,2.89 2.55,6.66 2.55,10.74 0,4.9 -1.47,12.53 -8.36,17.42 z"
           id="path3259" /><polyline
           style="fill:#000000;fill-rule:nonzero;stroke-width:0"
           points="716,417 915.8,417 915.8,419.04 716,419.04 "
           id="polyline3261" /><path
           style="fill:#000000;stroke-width:0"
           inkscape:connector-curvature="0"
           d="m 734.13,399.67 0.02,0.09 0.03,0.09 0.02,0.1 0.03,0.1 0.03,0.11 0.02,0.11 0.06,0.21 0.05,0.22 0.06,0.23 0.05,0.22 0.03,0.1 0.02,0.11 0.03,0.1 0.02,0.1 0.02,0.1 0.02,0.1 0.02,0.09 0.02,0.08 0.02,0.08 0.02,0.08 0.01,0.07 0.02,0.06 0.01,0.06 0.01,0.05 v 0.05 l 0.01,0.04 v 0.01 0.01 0.02 0 c 0,0.69 -0.54,1.11 -1.13,1.11 -0.68,0 -1.3,-0.42 -1.5,-1.01 -0.12,-0.27 -0.46,-1.74 -0.71,-2.61 -0.48,-1.99 -0.48,-2.05 -1,-4 -0.45,-1.92 -0.53,-2.2 -0.56,-3.2 0.14,-0.71 -0.14,-1.36 -0.98,-2.41 -0.44,-0.56 -1.15,-1.16 -2.33,-1.16 -1.36,0 -3.14,0.49 -3.14,3.21 0,1.78 0.98,4.36 1.67,6.14 0.59,1.53 0.73,1.84 0.73,2.43 0,1.68 -1.42,2.96 -3.31,2.96 -3.52,0 -5.08,-4.74 -5.08,-5.33 0,-0.45 0.49,-0.45 0.59,-0.45 0.49,0 0.52,0.17 0.63,0.56 0.87,2.89 2.37,4.25 3.77,4.25 0.59,0 0.85,-0.39 0.85,-1.22 0,-0.8 -0.31,-1.56 -0.48,-2.02 -1.98,-5.09 -1.98,-5.79 -1.98,-6.87 0,-4.11 3.73,-4.63 5.61,-4.63 0.67,0 2.37,0 3.93,2.33 0.8,-1.56 2.72,-2.33 4.85,-2.33 3.11,0 4.64,2.68 5.32,4.11 1.5,2.93 2.44,7.29 2.44,8.89 0,2.61 -1.48,2.75 -1.73,2.75 -0.91,0 -1.88,-0.95 -1.88,-1.85 0,-0.58 0.35,-0.86 0.58,-1.08 0.84,-0.69 1.3,-1.67 1.3,-2.78 0,-0.46 -1.47,-9.07 -5.89,-9.07 -2.83,0 -2.83,2.52 -2.83,3.11 0,0.94 0.14,1.5 0.64,3.49 z"
           id="path3263" /><path
           style="fill:#000000;stroke-width:0"
           inkscape:connector-curvature="0"
           d="m 765.5,402.56 -0.02,0.02 -0.01,0.03 -0.01,0.02 -0.01,0.03 -0.02,0.02 -0.01,0.02 -0.01,0.02 -0.01,0.02 -0.01,0.02 -0.01,0.01 -0.01,0.02 -0.01,0.02 v 0.01 l -0.01,0.02 -0.01,0.01 -0.01,0.01 v 0.02 l -0.01,0.01 -0.01,0.01 v 0.01 l -0.01,0.01 v 0.01 0 l -0.01,0.01 v 0.01 0 l -0.01,0.01 v 0 0.01 0 0.01 0 c 0,0.08 0.03,0.11 0.84,0.67 l 3.52,2.47 c 4.59,3.24 6.76,4.77 9.23,4.99 0.38,0.03 0.8,0.06 0.8,0.76 0,0.28 -0.24,0.45 -0.45,0.45 -0.74,0 -1.65,-0.11 -2.41,-0.11 -0.94,0 -3.27,0.15 -4.21,0.15 -0.21,0 -0.73,0 -0.73,-0.77 0,-0.03 0,-0.45 0.52,-0.48 0.42,-0.04 0.87,-0.11 0.87,-0.49 0,-0.64 -1.08,-1.41 -1.53,-1.72 l -14.53,-10.23 2.75,10.97 c 0.31,1.18 0.34,1.47 3.06,1.47 0.56,0 1.05,0 1.05,0.73 0,0.31 -0.21,0.52 -0.56,0.52 -1,0 -3.55,-0.15 -4.57,-0.15 -0.59,0 -1.81,0 -2.4,0.04 -0.69,0.04 -1.53,0.11 -2.19,0.11 -0.2,0 -0.74,0 -0.74,-0.77 0,-0.48 0.4,-0.48 1.16,-0.48 0.55,0 0.69,0 1.31,-0.08 0.71,-0.07 0.78,-0.14 0.78,-0.49 0,-0.06 0,-0.23 -0.13,-0.76 l -4.65,-18.5 c -0.28,-1.19 -0.34,-1.47 -3.06,-1.47 -0.62,0 -1.04,0 -1.04,-0.77 0,-0.03 0,-0.48 0.56,-0.48 1,0 3.51,0.14 4.51,0.14 0.6,0 1.81,0 2.41,-0.03 0.7,-0.05 1.58,-0.11 2.23,-0.11 0.21,0 0.74,0 0.74,0.76 0,0.49 -0.42,0.49 -1.11,0.49 -0.05,0 -0.71,0 -1.33,0.08 -0.81,0.06 -0.81,0.17 -0.81,0.51 0,0.28 0.36,1.58 1.64,6.69 l 5.78,4.08 5.06,-9.78 c 0.24,-0.46 0.24,-0.5 0.24,-0.68 0,-0.79 -0.97,-0.9 -1.6,-0.9 -0.42,0 -0.9,0 -0.9,-0.77 0,-0.03 0.03,-0.48 0.59,-0.48 0.97,0 3.49,0.14 4.45,0.14 1.05,0 2.44,-0.14 3.42,-0.14 0.46,0 0.69,0.25 0.69,0.73 0,0.52 -0.45,0.52 -0.79,0.52 -0.63,0 -1.71,0.05 -2.3,1.15 z"
           id="path3265" /><path
           style="fill:#000000;stroke-width:0"
           inkscape:connector-curvature="0"
           d="m 792.46,385.69 -0.01,-0.05 -0.01,-0.05 -0.02,-0.06 -0.01,-0.05 -0.01,-0.06 -0.02,-0.06 -0.03,-0.12 -0.02,-0.12 -0.03,-0.12 -0.03,-0.12 -0.03,-0.11 -0.01,-0.06 -0.01,-0.06 -0.02,-0.05 -0.01,-0.05 -0.01,-0.05 -0.01,-0.05 -0.01,-0.05 -0.01,-0.04 v -0.04 l -0.01,-0.04 -0.01,-0.04 v -0.03 l -0.01,-0.03 v -0.03 -0.02 -0.02 c 0,-0.54 0.45,-0.87 0.92,-0.87 0.37,0 0.92,0.2 1.2,0.83 0.02,0.12 0.31,1.29 0.47,1.93 0.84,3.38 0.84,3.43 0.89,3.52 0.33,0.67 2.13,4.16 5.16,4.16 1.22,0 1.75,-0.68 1.75,-1.79 0,-1.42 -1.05,-3.98 -1.63,-5.4 -0.12,-0.3 -0.25,-0.63 -0.25,-1.05 0,-1.3 1.25,-2.2 2.72,-2.2 2.67,0 4.03,3.25 4.03,3.87 0,0.35 -0.42,0.35 -0.51,0.35 -0.42,0 -0.46,-0.1 -0.6,-0.58 -0.48,-1.49 -1.62,-2.78 -2.82,-2.78 -0.57,0 -0.74,0.39 -0.74,0.94 0,0.53 0.09,0.78 0.31,1.32 0.43,1 1.58,3.83 1.58,5.21 0,1.84 -1.33,2.97 -3.69,2.97 -2.31,0 -3.93,-1.43 -4.93,-2.75 -0.22,2.54 -2.69,2.75 -3.71,2.75 -2.45,0 -3.84,-1.54 -4.73,-2.47 -0.11,2.18 -2.39,2.47 -3.02,2.47 -2.5,0 -3.22,-3.82 -3.22,-3.86 0,-0.36 0.41,-0.36 0.54,-0.36 0.42,0 0.46,0.15 0.56,0.48 0.37,1.44 0.95,2.88 2,2.88 0.84,0 1.01,-0.8 1.01,-1.32 0,-0.34 -0.25,-1.29 -0.39,-1.93 -0.18,-0.68 -0.42,-1.71 -0.54,-2.25 l -0.58,-2.22 c -0.16,-0.63 -0.42,-1.72 -0.42,-1.85 0,-0.54 0.43,-0.87 0.92,-0.87 0.37,0 0.92,0.2 1.19,0.83 0.03,0.12 0.32,1.29 0.48,1.93 0.09,0.41 0.38,1.47 0.44,1.72 0.12,0.57 0.28,1.11 0.4,1.67 0.05,0.11 0.94,1.93 2.16,3 0.41,0.35 1.45,1.29 3.08,1.29 1.26,0 1.73,-0.72 1.73,-1.79 0,-0.54 -0.25,-1.54 -0.45,-2.32 z"
           id="path3267" /><path
           style="fill:#000000;stroke-width:0"
           inkscape:connector-curvature="0"
           d="m 823.14,389.05 h 8.67 c 0.33,0 1,0 1,0.7 0,0.69 -0.67,0.69 -1,0.69 h -8.67 v 8.67 c 0,0.35 0,1.02 -0.71,1.02 -0.68,0 -0.68,-0.67 -0.68,-1.02 v -8.67 h -8.71 c -0.31,0 -0.98,0 -0.98,-0.69 0,-0.7 0.67,-0.7 0.98,-0.7 h 8.71 v -8.67 c 0,-0.34 0,-1.02 0.68,-1.02 0.71,0 0.71,0.68 0.71,1.02 z"
           id="path3269" /><path
           style="fill:#000000;stroke-width:0"
           inkscape:connector-curvature="0"
           d="m 845.12,399.36 v 0.04 0.03 0.03 0.04 0.03 l -0.01,0.02 v 0.03 0.03 0.03 0.02 0.03 l -0.01,0.02 v 0.02 0.03 0.02 l -0.01,0.02 v 0.02 l -0.01,0.01 -0.01,0.04 -0.01,0.03 -0.01,0.03 -0.02,0.03 -0.01,0.02 -0.02,0.02 -0.03,0.02 -0.02,0.02 -0.03,0.01 -0.03,0.01 -0.03,0.01 -0.03,0.01 -0.04,0.01 -0.04,0.01 h -0.03 -0.02 -0.02 l -0.03,0.01 h -0.02 -0.03 -0.03 -0.02 -0.03 -0.03 -0.03 -0.04 -0.03 -0.03 -0.04 -0.03 -0.04 -0.04 c -1.76,-1.59 -4.53,-1.59 -5.03,-1.59 h -0.42 v -1.09 h 0.42 c 0.58,0 2.19,0.06 3.64,0.68 v -12.45 c 0,-0.77 0,-1.05 -2.64,-1.05 h -1.25 v -1.09 c 1.37,0.09 3.59,0.09 5.03,0.09 1.45,0 3.67,0 5.03,-0.09 v 1.09 h -1.23 c -2.64,0 -2.64,0.28 -2.64,1.05 z"
           id="path3271" /><path
           style="fill:#000000;stroke-width:0"
           inkscape:connector-curvature="0"
           d="m 867.02,414.7 -0.61,-0.45 -0.58,-0.46 -0.55,-0.47 -0.53,-0.49 -0.49,-0.5 -0.48,-0.51 -0.44,-0.53 -0.43,-0.53 -0.4,-0.54 -0.37,-0.55 -0.35,-0.56 -0.34,-0.56 -0.3,-0.57 -0.29,-0.57 -0.27,-0.58 -0.25,-0.58 -0.22,-0.58 -0.21,-0.58 -0.19,-0.59 -0.18,-0.58 -0.15,-0.58 -0.14,-0.58 -0.12,-0.57 -0.11,-0.57 -0.1,-0.57 -0.07,-0.56 -0.07,-0.55 -0.05,-0.55 -0.04,-0.53 -0.03,-0.53 -0.01,-0.52 -0.01,-0.5 c 0,-4.92 1.47,-12.55 8.38,-17.42 0.28,0 0.68,0 0.68,0.4 0,0.22 -0.09,0.28 -0.34,0.53 -4.64,4.19 -6.34,10.11 -6.34,16.46 0,9.4 3.59,14 6.45,16.58 0.14,0.14 0.23,0.25 0.23,0.42 0,0.42 -0.4,0.42 -0.68,0.42 z"
           id="path3273" /><path
           style="fill:#000000;stroke-width:0"
           inkscape:connector-curvature="0"
           d="m 888.57,399.67 0.02,0.09 0.02,0.09 0.03,0.1 0.03,0.1 0.02,0.11 0.03,0.11 0.05,0.21 0.06,0.22 0.05,0.23 0.06,0.22 0.02,0.1 0.03,0.11 0.02,0.1 0.03,0.1 0.02,0.1 0.02,0.1 0.02,0.09 0.02,0.08 0.02,0.08 0.02,0.08 0.01,0.07 0.01,0.06 0.02,0.06 0.01,0.05 v 0.05 l 0.01,0.04 v 0.01 0.01 0.02 0 c 0,0.69 -0.54,1.11 -1.14,1.11 -0.67,0 -1.3,-0.42 -1.5,-1.01 -0.11,-0.27 -0.45,-1.74 -0.7,-2.61 -0.48,-1.99 -0.48,-2.05 -1,-4 -0.45,-1.92 -0.53,-2.2 -0.56,-3.2 0.14,-0.71 -0.14,-1.36 -0.99,-2.41 -0.43,-0.56 -1.14,-1.16 -2.33,-1.16 -1.35,0 -3.14,0.49 -3.14,3.21 0,1.78 0.99,4.36 1.67,6.14 0.6,1.53 0.74,1.84 0.74,2.43 0,1.68 -1.42,2.96 -3.31,2.96 -3.52,0 -5.08,-4.74 -5.08,-5.33 0,-0.45 0.48,-0.45 0.59,-0.45 0.49,0 0.52,0.17 0.63,0.56 0.87,2.89 2.37,4.25 3.76,4.25 0.6,0 0.86,-0.39 0.86,-1.22 0,-0.8 -0.31,-1.56 -0.48,-2.02 -1.99,-5.09 -1.99,-5.79 -1.99,-6.87 0,-4.11 3.74,-4.63 5.61,-4.63 0.67,0 2.38,0 3.94,2.33 0.8,-1.56 2.72,-2.33 4.85,-2.33 3.1,0 4.63,2.68 5.32,4.11 1.5,2.93 2.44,7.29 2.44,8.89 0,2.61 -1.48,2.75 -1.73,2.75 -0.91,0 -1.88,-0.95 -1.88,-1.85 0,-0.58 0.35,-0.86 0.58,-1.08 0.84,-0.69 1.3,-1.67 1.3,-2.78 0,-0.46 -1.47,-9.07 -5.9,-9.07 -2.82,0 -2.82,2.52 -2.82,3.11 0,0.94 0.14,1.5 0.64,3.49 z"
           id="path3275" /><path
           style="fill:#000000;stroke-width:0"
           inkscape:connector-curvature="0"
           d="m 903.14,414.7 h -0.03 -0.02 -0.03 -0.02 -0.03 -0.03 l -0.03,-0.01 h -0.02 -0.03 -0.03 l -0.03,-0.01 h -0.03 l -0.02,-0.01 -0.03,-0.01 h -0.03 l -0.02,-0.01 -0.03,-0.01 -0.02,-0.02 -0.03,-0.01 -0.02,-0.01 -0.02,-0.02 -0.02,-0.02 -0.02,-0.02 -0.01,-0.01 -0.01,-0.01 v -0.01 l -0.01,-0.01 -0.01,-0.01 v -0.02 l -0.01,-0.01 -0.01,-0.01 v -0.02 l -0.01,-0.01 v -0.02 -0.02 l -0.01,-0.01 v -0.02 -0.02 -0.01 -0.02 -0.02 c 0,-0.17 0.1,-0.28 0.31,-0.53 3,-2.75 6.34,-7.46 6.34,-16.44 0,-7.28 -2.27,-12.8 -6.03,-16.2 -0.58,-0.6 -0.62,-0.63 -0.62,-0.82 0,-0.17 0.1,-0.4 0.45,-0.4 0.42,0 3.73,2.29 6.03,6.65 1.53,2.89 2.55,6.66 2.55,10.74 0,4.9 -1.47,12.53 -8.36,17.42 z"
           id="path3277" /></g>    </g>
  </g>
  <g
     inkscape:groupmode="layer"
     id="layer8"
     inkscape:label="v"
     style="display:inline"
     transform="translate(-84.996,-87.438)">
    <g
       id="g2957">
      <g
         id="content"
         transform="matrix(0.3,0,0,-0.3,-52.5,222.75)"
         xml:space="preserve"
         stroke-miterlimit="10.433"
         font-style="normal"
         font-variant="normal"
         font-weight="normal"
         font-stretch="normal"
         font-size-adjust="none"
         letter-spacing="normal"
         word-spacing="normal"
         style="font-style:normal;font-variant:normal;font-weight:normal;font-stretch:normal;letter-spacing:normal;word-spacing:normal;text-anchor:start;fill:none;fill-opacity:1;fill-rule:evenodd;stroke:#000000;stroke-linecap:butt;stroke-linejoin:miter;stroke-miterlimit:10.43299961;stroke-dasharray:none;stroke-dashoffset:0;stroke-opacity:1"><path
           d="m 486.8,434.54 0.23,0.36 0.23,0.33 0.22,0.31 0.22,0.29 0.22,0.28 0.22,0.25 0.22,0.24 0.22,0.22 0.21,0.2 0.21,0.19 0.21,0.17 0.2,0.16 0.21,0.14 0.2,0.13 0.21,0.12 0.19,0.11 0.2,0.09 0.2,0.09 0.19,0.07 0.2,0.07 0.19,0.06 0.19,0.05 0.18,0.04 0.19,0.03 0.18,0.03 0.19,0.03 0.36,0.04 0.35,0.02 0.35,0.02 c 0.6,0.05 0.64,0.89 0.64,0.96 0,0.39 -0.25,0.59 -0.64,0.59 -1.3,0 -2.75,-0.16 -4.09,-0.16 -1.64,0 -3.35,0.16 -4.94,0.16 -0.3,0 -0.94,0 -0.94,-0.95 0,-0.55 0.46,-0.6 0.8,-0.6 1.34,-0.09 2.3,-0.59 2.3,-1.64 0,-0.75 -0.75,-1.84 -0.75,-1.89 l -15.3,-24.31 -3.39,26.34 c 0,0.85 1.14,1.5 3.44,1.5 0.7,0 1.25,0 1.25,1 0,0.44 -0.41,0.55 -0.71,0.55 -1.98,0 -4.14,-0.16 -6.17,-0.16 -0.9,0 -1.84,0.05 -2.75,0.05 -0.89,0 -1.84,0.11 -2.69,0.11 -0.34,0 -0.93,0 -0.93,-0.95 0,-0.6 0.43,-0.6 1.23,-0.6 2.8,0 2.84,-0.45 3,-1.68 l 3.92,-30.75 c 0.16,-1 0.36,-1.14 1,-1.14 0.8,0 1,0.25 1.41,0.89 z"
           id="path2902"
           inkscape:connector-curvature="0"
           style="fill:#000000;stroke-width:0" /><path
           d="m 543.75,422.5 h 0.14 0.15 0.14 l 0.07,0.01 h 0.08 l 0.07,0.01 0.07,0.01 0.07,0.01 0.07,0.01 0.07,0.01 0.06,0.02 0.07,0.02 0.06,0.02 0.06,0.02 0.06,0.03 0.06,0.03 0.05,0.04 0.05,0.03 0.05,0.05 0.04,0.04 0.04,0.05 0.02,0.03 0.02,0.03 0.01,0.02 0.02,0.03 0.01,0.03 0.02,0.04 0.01,0.03 0.01,0.04 0.01,0.03 0.01,0.04 v 0.04 l 0.01,0.04 v 0.04 l 0.01,0.04 v 0.04 0.05 c 0,1 -0.95,1 -1.64,1 h -29.84 c -0.71,0 -1.64,0 -1.64,-1 0,-0.98 0.93,-0.98 1.68,-0.98 z"
           id="path2904"
           inkscape:connector-curvature="0"
           style="fill:#000000;stroke-width:0" /><path
           d="m 543.8,412.82 h 0.07 0.06 l 0.14,0.01 h 0.14 0.07 l 0.07,0.01 0.07,0.01 h 0.07 l 0.06,0.01 0.07,0.02 0.07,0.01 0.06,0.02 0.07,0.02 0.06,0.02 0.06,0.02 0.06,0.03 0.05,0.03 0.05,0.04 0.05,0.04 0.05,0.04 0.04,0.05 0.02,0.02 0.02,0.03 0.02,0.02 0.02,0.03 0.01,0.03 0.02,0.03 0.01,0.03 0.02,0.03 0.01,0.04 0.01,0.03 0.01,0.04 0.01,0.04 v 0.04 l 0.01,0.04 v 0.04 l 0.01,0.04 v 0.05 0.04 c 0,1 -0.95,1 -1.69,1 H 514 c -0.75,0 -1.68,0 -1.68,-1 0,-1 0.93,-1 1.64,-1 z"
           id="path2906"
           inkscape:connector-curvature="0"
           style="fill:#000000;stroke-width:0" /><path
           d="m 576.38,440.23 h -0.01 v 0.01 0 0.01 0.02 0.01 0.02 0.02 l -0.01,0.02 v 0.02 0.02 l -0.01,0.02 -0.01,0.02 -0.01,0.03 -0.01,0.02 -0.01,0.03 -0.02,0.02 -0.01,0.03 -0.02,0.02 -0.02,0.02 -0.02,0.03 -0.01,0.01 -0.02,0.01 -0.01,0.01 -0.01,0.01 -0.02,0.01 -0.01,0.01 -0.02,0.01 -0.02,0.01 -0.01,0.01 -0.02,0.01 h -0.02 l -0.02,0.01 -0.02,0.01 h -0.02 l -0.02,0.01 -0.02,0.01 h -0.03 -0.02 l -0.03,0.01 h -0.02 -0.03 l -0.03,0.01 h -0.03 -0.03 c -1.15,0 -4.78,-0.41 -6.07,-0.5 -0.41,-0.05 -0.96,-0.1 -0.96,-1 0,-0.6 0.46,-0.6 1.21,-0.6 2.39,0 2.48,-0.34 2.48,-0.84 l -0.16,-1 -7.21,-28.7 c -0.21,-0.69 -0.21,-0.8 -0.21,-1.1 0,-1.14 1,-1.39 1.46,-1.39 0.64,0 1.39,0.46 1.68,1.05 0.25,0.45 2.5,9.66 2.8,10.91 1.69,-0.15 5.78,-0.94 5.78,-4.24 0,-0.34 0,-0.55 -0.15,-1.05 -0.1,-0.59 -0.21,-1.18 -0.21,-1.73 0,-2.95 2,-4.94 4.6,-4.94 1.48,0 2.82,0.8 3.93,2.64 1.24,2.19 1.78,4.94 1.78,5.03 0,0.5 -0.43,0.5 -0.59,0.5 -0.5,0 -0.55,-0.2 -0.7,-0.9 -0.99,-3.63 -2.14,-6.17 -4.33,-6.17 -0.94,0 -1.59,0.54 -1.59,2.34 0,0.84 0.2,1.98 0.4,2.78 0.19,0.86 0.19,1.05 0.19,1.55 0,3.25 -3.14,4.69 -7.38,5.23 1.55,0.91 3.14,2.5 4.3,3.69 2.39,2.64 4.67,4.78 7.13,4.78 0.29,0 0.34,0 0.43,-0.05 0.61,-0.09 0.66,-0.09 1.05,-0.39 0.11,-0.06 0.11,-0.11 0.2,-0.2 -2.39,-0.16 -2.84,-2.09 -2.84,-2.69 0,-0.79 0.55,-1.75 1.89,-1.75 1.3,0 2.75,1.1 2.75,3.03 0,1.5 -1.16,3.14 -3.39,3.14 -1.39,0 -3.69,-0.39 -7.28,-4.37 -1.69,-1.89 -3.63,-3.89 -5.52,-4.64 z"
           id="path2908"
           inkscape:connector-curvature="0"
           style="fill:#000000;stroke-width:0" /><path
           d="m 605.98,409.87 v 0.71 l -0.02,0.68 -0.03,0.66 -0.04,0.64 -0.06,0.62 -0.07,0.6 -0.09,0.57 -0.11,0.56 -0.13,0.55 -0.15,0.53 -0.17,0.51 -0.19,0.5 -0.21,0.49 -0.24,0.48 -0.26,0.47 -0.14,0.23 -0.15,0.23 c -1.08,1.61 -3.23,3 -6.03,3 v -0.98 c 1.89,0 3.7,-1.14 4.33,-3.17 0.56,-1.88 0.59,-4.39 0.59,-7.43 0,-2.57 0,-5.15 -0.45,-7.34 -0.7,-3.17 -3.06,-3.94 -4.47,-3.94 v 0 c -1.59,0 -3.72,0.94 -4.42,3.8 -0.49,2.05 -0.49,4.91 -0.49,7.48 0,2.55 0,5.21 0.52,7.11 0.73,2.75 2.97,3.49 4.39,3.49 v 0.98 c -8.08,0 -8.08,-9.51 -8.08,-12.03 0,-2.5 0,-11.81 8.08,-11.81 8.09,0 8.09,9.31 8.09,11.81 z"
           id="path2910"
           inkscape:connector-curvature="0"
           style="fill:#000000;stroke-width:0" /><path
           d="m 629.02,425.03 -0.09,0.17 -0.08,0.17 -0.1,0.16 -0.09,0.16 -0.1,0.16 -0.1,0.16 -0.11,0.15 -0.11,0.14 -0.11,0.15 -0.12,0.13 -0.12,0.14 -0.12,0.13 -0.13,0.12 -0.13,0.12 -0.14,0.11 -0.14,0.11 -0.14,0.11 -0.15,0.09 -0.15,0.1 -0.15,0.08 -0.16,0.08 -0.17,0.08 -0.16,0.06 -0.18,0.07 -0.17,0.05 -0.18,0.05 -0.19,0.04 -0.19,0.03 -0.19,0.03 -0.2,0.02 -0.2,0.01 h -0.21 l 0.05,-1.09 c 3.23,0 3.94,-4.08 3.94,-4.37 0,-0.32 -0.1,-0.61 -0.15,-0.86 l -2.5,-9.77 c -0.25,-0.89 -0.25,-0.98 -1,-1.84 -2.18,-2.74 -4.23,-3.53 -5.62,-3.53 -2.48,0 -3.19,2.73 -3.19,4.68 0,2.49 1.6,8.61 2.74,10.91 1.54,2.94 3.79,4.78 5.78,4.78 l -0.05,1.09 c -5.83,0 -12,-7.31 -12,-14.59 0,-4.69 2.74,-7.97 6.63,-7.97 0.98,0 3.48,0.21 6.46,3.74 0.41,-2.1 2.15,-3.74 4.54,-3.74 1.75,0 2.89,1.14 3.68,2.74 0.85,1.79 1.5,4.84 1.5,4.93 0,0.5 -0.45,0.5 -0.59,0.5 -0.5,0 -0.55,-0.2 -0.7,-0.9 -0.85,-3.24 -1.75,-6.17 -3.78,-6.17 -1.35,0 -1.5,1.29 -1.5,2.29 0,1.1 0.09,1.49 0.64,3.69 0.56,2.09 0.65,2.59 1.11,4.48 l 1.78,6.97 c 0.36,1.39 0.36,1.5 0.36,1.69 0,0.86 -0.61,1.36 -1.46,1.36 -1.18,0 -1.93,-1.11 -2.09,-2.2 z"
           id="path2912"
           inkscape:connector-curvature="0"
           style="fill:#000000;stroke-width:0" /><path
           d="m 648.28,439.57 -0.04,0.06 -0.04,0.05 -0.04,0.05 -0.03,0.05 -0.04,0.04 -0.03,0.04 -0.03,0.04 -0.03,0.03 -0.03,0.04 -0.03,0.03 -0.04,0.02 -0.03,0.03 -0.03,0.02 -0.03,0.02 -0.03,0.02 -0.04,0.02 -0.03,0.02 -0.04,0.01 -0.04,0.01 -0.04,0.01 -0.05,0.01 -0.04,0.01 -0.05,0.01 h -0.06 l -0.05,0.01 h -0.06 -0.07 l -0.06,0.01 h -0.08 -0.03 -0.04 -0.04 -0.05 -0.04 -0.04 -8.47 v -1.55 h 1.45 c 0.75,0 1.74,-0.04 2.49,-0.09 1.14,-0.16 1.2,-0.2 1.2,-1.16 v -26 c 0,-1.34 0,-3.68 -5.14,-3.68 v -1.55 c 1.75,0.05 4.19,0.16 5.83,0.16 1.65,0 4.09,-0.11 5.83,-0.16 v 1.55 c -5.13,0 -5.13,2.34 -5.13,3.68 v 25.91 c 0.25,-0.25 0.3,-0.3 0.5,-0.59 l 20.33,-29.91 c 0.44,-0.59 0.5,-0.64 0.84,-0.64 0.71,0 0.71,0.34 0.71,1.3 V 435 c 0,1.34 0,3.68 5.12,3.68 v 1.55 c -1.75,-0.05 -4.19,-0.16 -5.83,-0.16 -1.64,0 -4.09,0.11 -5.83,0.16 v -1.55 c 5.13,0 5.13,-2.34 5.13,-3.68 v -21.29 z"
           id="path2914"
           inkscape:connector-curvature="0"
           style="fill:#000000;stroke-width:0" /><path
           d="m 693.86,440.87 -0.02,0.06 -0.02,0.06 -0.02,0.06 -0.03,0.05 -0.02,0.06 -0.02,0.05 -0.02,0.05 -0.02,0.04 -0.02,0.05 -0.02,0.04 -0.02,0.05 -0.03,0.04 -0.02,0.03 -0.03,0.04 -0.02,0.03 -0.03,0.04 -0.03,0.03 -0.03,0.03 -0.04,0.02 -0.03,0.03 -0.04,0.02 -0.04,0.02 -0.04,0.02 -0.05,0.02 -0.05,0.01 -0.05,0.01 -0.05,0.02 h -0.06 l -0.06,0.01 -0.07,0.01 h -0.06 -0.04 -0.04 c -0.79,0 -0.95,-0.3 -1.2,-1 l -10.31,-29.8 c -0.89,-2.53 -2.89,-3.28 -5.58,-3.32 v -1.55 c 1.14,0.05 3.28,0.16 5.08,0.16 1.54,0 4.14,-0.11 5.73,-0.16 v 1.55 c -2.48,0 -3.73,1.25 -3.73,2.53 0,0.15 0.04,0.65 0.09,0.75 l 2.3,6.53 0.55,1.55 5.57,16.18 5.63,-16.18 h -11.2 l -0.55,-1.55 h 12.3 l 2.63,-7.63 c 0.07,-0.2 0.16,-0.5 0.16,-0.68 0,-1.5 -2.79,-1.5 -4.14,-1.5 v -1.55 c 1.8,0.16 5.28,0.16 7.19,0.16 2.14,0 4.42,-0.07 6.51,-0.16 v 1.55 h -0.89 c -3,0 -3.68,0.34 -4.23,1.98 z"
           id="path2916"
           inkscape:connector-curvature="0"
           style="fill:#000000;stroke-width:0" /><path
           d="m 759.5,422.5 h 0.14 0.15 0.14 l 0.07,0.01 h 0.08 l 0.07,0.01 0.07,0.01 0.07,0.01 0.07,0.01 0.07,0.01 0.06,0.02 0.07,0.02 0.06,0.02 0.06,0.02 0.06,0.03 0.06,0.03 0.05,0.04 0.05,0.03 0.05,0.05 0.04,0.04 0.04,0.05 0.02,0.03 0.02,0.03 0.01,0.02 0.02,0.03 0.01,0.03 0.02,0.04 0.01,0.03 0.01,0.04 0.01,0.03 0.01,0.04 v 0.04 l 0.01,0.04 v 0.04 l 0.01,0.04 v 0.04 0.05 c 0,1 -0.95,1 -1.64,1 h -29.84 c -0.71,0 -1.64,0 -1.64,-1 0,-0.98 0.93,-0.98 1.68,-0.98 z"
           id="path2918"
           inkscape:connector-curvature="0"
           style="fill:#000000;stroke-width:0" /><path
           d="m 759.55,412.82 h 0.07 0.06 l 0.14,0.01 h 0.14 0.07 l 0.07,0.01 0.07,0.01 h 0.07 l 0.06,0.01 0.07,0.02 0.07,0.01 0.06,0.02 0.07,0.02 0.06,0.02 0.06,0.02 0.06,0.03 0.05,0.03 0.05,0.04 0.05,0.04 0.05,0.04 0.04,0.05 0.02,0.02 0.02,0.03 0.02,0.02 0.02,0.03 0.01,0.03 0.02,0.03 0.01,0.03 0.02,0.03 0.01,0.04 0.01,0.03 0.01,0.04 0.01,0.04 v 0.04 l 0.01,0.04 v 0.04 l 0.01,0.04 v 0.05 0.04 c 0,1 -0.95,1 -1.69,1 h -29.75 c -0.75,0 -1.68,0 -1.68,-1 0,-1 0.93,-1 1.64,-1 z"
           id="path2920"
           inkscape:connector-curvature="0"
           style="fill:#000000;stroke-width:0" /><path
           d="m 801.43,432.11 h -1.18 c -0.1,-0.77 -0.46,-2.83 -0.91,-3.18 -0.27,-0.2 -2.95,-0.2 -3.44,-0.2 h -6.42 c 3.66,3.23 4.87,4.2 6.97,5.84 2.58,2.07 4.98,4.22 4.98,7.54 0,4.21 -3.68,6.79 -8.15,6.79 -4.31,0 -7.25,-3.03 -7.25,-6.23 0,-1.78 1.5,-1.96 1.86,-1.96 0.83,0 1.84,0.6 1.84,1.85 0,0.62 -0.25,1.84 -2.06,1.84 1.08,2.47 3.45,3.24 5.09,3.24 3.49,0 5.3,-2.71 5.3,-5.53 0,-3.04 -2.16,-5.44 -3.28,-6.69 l -8.39,-8.3 c -0.36,-0.31 -0.36,-0.39 -0.36,-1.36 h 14.36 z"
           id="path2922"
           inkscape:connector-curvature="0"
           style="fill:#000000;stroke-width:0" /><path
           d="m 814.48,438.42 h 4.14 c -0.53,-2.1 -1.3,-5.27 -1.3,-8.02 0,-1.4 0.19,-2.34 0.4,-3.11 0.56,-1.73 1.01,-1.87 1.56,-1.87 0.81,0 1.64,0.73 1.64,1.56 0,0.28 -0.07,0.42 -0.28,0.77 -0.66,1.29 -1.29,3.28 -1.29,6.14 0,0.65 0,2.04 0.49,4.53 h 4.36 c 0.62,0 0.9,0 1.28,0.26 0.49,0.36 0.59,0.91 0.59,1.08 0,1.02 -0.9,1.02 -1.5,1.02 h -13.12 c -1.44,0 -2.41,-0.32 -3.98,-1.78 -0.91,-0.8 -2.27,-2.68 -2.27,-2.99 0,-0.42 0.45,-0.42 0.59,-0.42 0.39,0 0.43,0.06 0.63,0.37 1.78,2.46 3.93,2.46 4.7,2.46 h 2.13 c -1.08,-3.85 -2.96,-7.96 -4,-10.05 -0.21,-0.45 -0.57,-1.19 -0.66,-1.31 -0.05,-0.14 -0.11,-0.28 -0.11,-0.53 0,-0.57 0.42,-1.11 1.22,-1.11 1.39,0 1.78,1.56 2.61,4.7 z"
           id="path2924"
           inkscape:connector-curvature="0"
           style="fill:#000000;stroke-width:0" /><polyline
           points="784,418 828.52,418 828.52,420.04 784,420.04 "
           id="polyline2926"
           style="fill:#000000;fill-rule:nonzero;stroke-width:0" /><path
           d="m 798.64,399.01 0.32,-0.76 0.34,-0.77 0.33,-0.78 0.33,-0.78 0.32,-0.78 0.32,-0.76 0.16,-0.37 0.15,-0.36 0.15,-0.36 0.14,-0.34 0.14,-0.34 0.14,-0.32 0.13,-0.31 0.13,-0.3 0.12,-0.29 0.12,-0.27 0.11,-0.25 0.1,-0.23 0.1,-0.22 0.09,-0.19 0.08,-0.18 0.07,-0.15 0.07,-0.13 0.06,-0.11 0.05,-0.08 0.04,-0.06 c 0.65,-0.82 1.29,-0.82 1.84,-0.82 h 0.7 c 0.66,0 1.02,0 1.02,0.4 0,0.19 -0.11,0.28 -0.19,0.36 -0.4,0.38 -0.77,1.19 -0.9,1.5 l -8.5,20.06 c -0.24,0.63 -0.94,2.21 -4.63,2.21 -0.42,0 -0.91,0 -0.91,-0.5 0,-0.41 0.35,-0.46 0.52,-0.49 0.73,-0.09 1.39,-0.2 2.27,-2.19 l 4.13,-9.76 -10.26,-9.27 c -0.42,-0.34 -0.7,-0.62 -0.7,-1.22 0,-0.82 0.7,-1.18 1.18,-1.18 0.66,0 1.08,0.45 1.19,0.56 z"
           id="path2928"
           inkscape:connector-curvature="0"
           style="fill:#000000;stroke-width:0" /><path
           d="m 823.17,391.97 v 0.18 0.21 l -0.01,0.24 v 0.26 l -0.02,0.27 -0.01,0.3 -0.03,0.32 -0.03,0.32 -0.05,0.35 -0.05,0.35 -0.07,0.35 -0.07,0.37 -0.1,0.36 -0.11,0.37 -0.12,0.37 -0.14,0.37 -0.17,0.35 -0.18,0.36 -0.2,0.34 -0.23,0.33 -0.25,0.32 -0.27,0.3 -0.15,0.14 -0.16,0.14 -0.16,0.13 -0.16,0.13 -0.18,0.12 -0.18,0.12 -0.19,0.11 -0.2,0.1 -0.2,0.1 -0.22,0.09 -0.22,0.08 -0.23,0.08 -0.23,0.06 -0.25,0.06 -0.25,0.05 -0.27,0.05 -0.27,0.03 -0.28,0.02 -0.29,0.02 h -0.3 v -0.82 c 1.84,0 3.17,-0.94 3.65,-2.69 0.36,-1.27 0.36,-3.35 0.36,-4.81 0,-1.69 0,-3.71 -0.37,-5.21 -0.66,-2.42 -2.64,-2.78 -3.64,-2.78 v 0 c -0.92,0 -3.02,0.31 -3.64,2.83 -0.35,1.34 -0.38,3.12 -0.38,5.16 0,1.84 0,3.56 0.41,4.98 0.62,2.09 2.54,2.52 3.61,2.52 v 0.82 c -6.5,0 -6.5,-6.82 -6.5,-8.62 0,-1.81 0,-8.52 6.5,-8.52 6.5,0 6.5,6.71 6.5,8.52 z"
           id="path2930"
           inkscape:connector-curvature="0"
           style="fill:#000000;stroke-width:0" /><path
           d="m 852.82,425.03 -0.09,0.17 -0.09,0.17 -0.09,0.16 -0.09,0.16 -0.1,0.16 -0.11,0.16 -0.1,0.15 -0.11,0.14 -0.11,0.15 -0.12,0.13 -0.12,0.14 -0.12,0.13 -0.13,0.12 -0.13,0.12 -0.14,0.11 -0.14,0.11 -0.14,0.11 -0.15,0.09 -0.15,0.1 -0.16,0.08 -0.16,0.08 -0.16,0.08 -0.17,0.06 -0.17,0.07 -0.18,0.05 -0.18,0.05 -0.18,0.04 -0.19,0.03 -0.19,0.03 -0.2,0.02 -0.2,0.01 h -0.21 l 0.04,-1.09 c 3.24,0 3.94,-4.08 3.94,-4.37 0,-0.32 -0.09,-0.61 -0.14,-0.86 l -2.5,-9.77 c -0.25,-0.89 -0.25,-0.98 -1,-1.84 -2.18,-2.74 -4.23,-3.53 -5.62,-3.53 -2.49,0 -3.19,2.73 -3.19,4.68 0,2.49 1.59,8.61 2.73,10.91 1.55,2.94 3.8,4.78 5.78,4.78 l -0.04,1.09 c -5.83,0 -12,-7.31 -12,-14.59 0,-4.69 2.73,-7.97 6.62,-7.97 0.99,0 3.49,0.21 6.47,3.74 0.41,-2.1 2.14,-3.74 4.53,-3.74 1.75,0 2.89,1.14 3.69,2.74 0.85,1.79 1.5,4.84 1.5,4.93 0,0.5 -0.45,0.5 -0.59,0.5 -0.5,0 -0.55,-0.2 -0.71,-0.9 -0.84,-3.24 -1.75,-6.17 -3.78,-6.17 -1.34,0 -1.5,1.29 -1.5,2.29 0,1.1 0.1,1.49 0.64,3.69 0.57,2.09 0.66,2.59 1.11,4.48 l 1.78,6.97 c 0.36,1.39 0.36,1.5 0.36,1.69 0,0.86 -0.61,1.36 -1.45,1.36 -1.19,0 -1.94,-1.11 -2.09,-2.2 z"
           id="path2932"
           inkscape:connector-curvature="0"
           style="fill:#000000;stroke-width:0" /><path
           d="m 881.65,390.76 h 0.07 0.07 0.06 0.07 0.06 0.06 0.06 l 0.06,0.01 h 0.05 0.06 0.05 0.05 l 0.09,0.01 h 0.09 l 0.09,0.01 0.07,0.01 0.08,0.01 0.06,0.02 0.07,0.01 0.06,0.02 0.05,0.02 0.05,0.02 0.05,0.03 0.05,0.03 0.04,0.03 0.04,0.04 0.04,0.04 0.04,0.04 0.04,0.04 0.04,0.05 0.03,0.06 0.04,0.06 0.04,0.06 0.04,0.07 0.04,0.07 0.04,0.07 0.04,0.09 0.05,0.08 27.25,56.89 c 0.34,0.66 0.34,0.75 0.34,0.91 0,0.55 -0.39,1 -0.98,1 -0.66,0 -0.86,-0.45 -1.11,-1 l -25.71,-53.61 -10.6,24.7 -6.93,-5.33 0.75,-0.79 3.53,2.68 z"
           id="path2934"
           inkscape:connector-curvature="0"
           style="fill:#000000;stroke-width:0" /><polyline
           points="910,449 1102.2,449 1102.2,451.04 910,451.04 "
           id="polyline2936"
           style="fill:#000000;fill-rule:nonzero;stroke-width:0" /><path
           d="m 914.71,409.14 -0.02,-0.07 -0.01,-0.08 -0.02,-0.07 -0.02,-0.08 -0.03,-0.16 -0.04,-0.16 -0.04,-0.16 -0.03,-0.16 -0.04,-0.16 -0.04,-0.16 -0.02,-0.08 -0.01,-0.07 -0.02,-0.07 -0.01,-0.07 -0.02,-0.07 -0.01,-0.07 -0.02,-0.06 -0.01,-0.06 -0.01,-0.06 -0.01,-0.05 -0.01,-0.05 v -0.04 l -0.01,-0.04 v -0.04 l -0.01,-0.03 V 407 c 0,-0.89 0.71,-1.35 1.44,-1.35 0.61,0 1.5,0.39 1.84,1.39 0.07,0.11 0.66,2.44 0.96,3.69 l 1.09,4.48 c 0.3,1.1 0.6,2.19 0.85,3.35 0.2,0.84 0.6,2.28 0.65,2.48 0.75,1.55 3.39,6.08 8.11,6.08 2.25,0 2.71,-1.84 2.71,-3.48 0,-3.1 -2.46,-9.47 -3.25,-11.61 -0.44,-1.14 -0.49,-1.75 -0.49,-2.3 0,-2.33 1.74,-4.08 4.08,-4.08 4.69,0 6.53,7.27 6.53,7.67 0,0.5 -0.45,0.5 -0.61,0.5 -0.48,0 -0.48,-0.15 -0.73,-0.9 -1,-3.38 -2.65,-6.17 -5.1,-6.17 -0.84,0 -1.18,0.5 -1.18,1.64 0,1.25 0.45,2.45 0.88,3.54 0.96,2.64 3.05,8.11 3.05,10.96 0,3.34 -2.14,5.32 -5.73,5.32 -4.49,0 -6.92,-3.18 -7.77,-4.32 -0.25,2.79 -2.3,4.32 -4.59,4.32 -2.28,0 -3.24,-1.93 -3.74,-2.82 -0.79,-1.71 -1.5,-4.64 -1.5,-4.85 0,-0.5 0.5,-0.5 0.61,-0.5 0.5,0 0.55,0.07 0.85,1.16 0.84,3.53 1.84,5.92 3.64,5.92 0.98,0 1.55,-0.64 1.55,-2.28 0,-1.05 -0.16,-1.61 -0.8,-4.19 z"
           id="path2938"
           inkscape:connector-curvature="0"
           style="fill:#000000;stroke-width:0" /><path
           d="m 957.79,426.95 h -1.19 c -0.09,-0.77 -0.45,-2.83 -0.9,-3.18 -0.27,-0.2 -2.95,-0.2 -3.44,-0.2 h -6.42 c 3.66,3.23 4.88,4.2 6.97,5.84 2.58,2.07 4.98,4.22 4.98,7.54 0,4.21 -3.69,6.79 -8.15,6.79 -4.32,0 -7.25,-3.03 -7.25,-6.23 0,-1.78 1.5,-1.96 1.86,-1.96 0.82,0 1.84,0.6 1.84,1.85 0,0.62 -0.25,1.84 -2.06,1.84 1.07,2.47 3.45,3.24 5.09,3.24 3.48,0 5.3,-2.71 5.3,-5.53 0,-3.04 -2.16,-5.44 -3.28,-6.69 l -8.39,-8.3 c -0.36,-0.31 -0.36,-0.39 -0.36,-1.36 h 14.36 z"
           id="path2940"
           inkscape:connector-curvature="0"
           style="fill:#000000;stroke-width:0" /><path
           d="m 953.75,407.75 -0.06,-0.03 -0.06,-0.03 -0.05,-0.03 -0.06,-0.03 -0.05,-0.04 -0.05,-0.03 -0.04,-0.04 -0.05,-0.04 -0.04,-0.03 -0.05,-0.05 -0.04,-0.04 -0.04,-0.04 -0.03,-0.05 -0.04,-0.04 -0.03,-0.05 -0.03,-0.05 -0.03,-0.05 -0.03,-0.05 -0.03,-0.05 -0.02,-0.05 -0.02,-0.06 -0.02,-0.05 -0.02,-0.06 -0.02,-0.06 -0.01,-0.05 -0.02,-0.06 -0.01,-0.06 -0.01,-0.06 v -0.07 l -0.01,-0.06 v -0.06 -0.07 c 0,-0.95 0.65,-1.64 1.64,-1.64 0.93,0 1.67,0.6 1.67,1.71 0,3.11 -4.84,3.11 -5.83,3.11 -5.22,0 -8.45,-4.02 -8.45,-8.02 0,-4.39 3.72,-7.87 8.28,-7.87 5.2,0 6.42,4.11 6.42,4.53 0,0.4 -0.45,0.4 -0.59,0.4 -0.45,0 -0.49,-0.09 -0.67,-0.59 -0.77,-2.16 -2.61,-3.23 -4.74,-3.23 -2.41,0 -5.53,1.78 -5.53,6.79 0,4.42 2.16,6.86 5.39,6.86 0.45,0 2.13,0 3.38,-0.51 z"
           id="path2942"
           inkscape:connector-curvature="0"
           style="fill:#000000;stroke-width:0" /><path
           d="m 976.4,401.26 -0.02,0.41 -0.03,0.4 -0.05,0.4 -0.07,0.39 -0.1,0.39 -0.11,0.38 -0.13,0.37 -0.15,0.37 -0.17,0.36 -0.19,0.35 -0.2,0.34 -0.22,0.33 -0.24,0.32 -0.25,0.31 -0.26,0.29 -0.28,0.29 -0.3,0.27 -0.31,0.26 -0.32,0.25 -0.33,0.23 -0.35,0.21 -0.36,0.2 -0.37,0.18 -0.38,0.17 -0.39,0.15 -0.4,0.13 -0.41,0.11 -0.41,0.1 -0.43,0.07 -0.43,0.05 -0.44,0.04 -0.45,0.01 v -0.99 c 2.06,0 3.53,-0.97 4.3,-2.04 0.96,-1.36 1.07,-3.11 1.07,-4.79 0,-1.67 -0.11,-3.51 -1.12,-4.95 -0.94,-1.31 -2.53,-2.01 -4.25,-2.01 v 0 c -1.28,0 -3.17,0.42 -4.32,2.12 -0.93,1.44 -1.04,3.23 -1.04,4.84 0,1.5 0.03,3.57 1.25,5.05 0.87,1.02 2.34,1.78 4.11,1.78 v 0.99 c -4.8,0 -8.53,-3.77 -8.53,-8.13 0,-4.33 3.83,-7.76 8.53,-7.76 4.7,0 8.55,3.43 8.55,7.76 z"
           id="path2944"
           inkscape:connector-curvature="0"
           style="fill:#000000;stroke-width:0" /><path
           d="m 1024.3,417.65 h 0.1 0.2 l 0.1,0.01 h 0.1 l 0.1,0.01 h 0.1 v 0.01 l 0.1,0.01 0.1,0.01 0.1,0.02 v 0.02 l 0.1,0.02 0.1,0.02 v 0.02 l 0.1,0.03 v 0.03 l 0.1,0.04 v 0.03 l 0.1,0.05 v 0.04 l 0.1,0.05 v 0.03 0.03 0.03 0.03 0.03 l 0.1,0.03 v 0.04 0.03 0.04 0.04 0.04 0.04 0.04 0.04 0.05 0.04 c 0,1 -0.9,1 -1.7,1 h -26.98 c -0.85,0 -1.74,0 -1.74,-1 0,-1 0.89,-1 1.74,-1 z"
           id="path2946"
           inkscape:connector-curvature="0"
           style="fill:#000000;stroke-width:0" /><path
           d="m 1045.6,409.14 v -0.07 -0.08 -0.07 -0.08 l -0.1,-0.16 v -0.16 -0.16 l -0.1,-0.16 v -0.16 l -0.1,-0.16 v -0.08 -0.07 -0.07 -0.07 -0.07 -0.07 l -0.1,-0.06 v -0.06 -0.06 -0.05 -0.05 -0.04 -0.04 -0.04 -0.03 -0.02 c 0,-0.89 0.7,-1.35 1.4,-1.35 0.6,0 1.5,0.39 1.9,1.39 0,0.11 0.6,2.44 0.9,3.69 l 1.1,4.48 c 0.3,1.1 0.6,2.19 0.8,3.35 0.3,0.84 0.7,2.28 0.7,2.48 0.8,1.55 3.4,6.08 8.1,6.08 2.3,0 2.7,-1.84 2.7,-3.48 0,-3.1 -2.4,-9.47 -3.2,-11.61 -0.5,-1.14 -0.5,-1.75 -0.5,-2.3 0,-2.33 1.7,-4.08 4.1,-4.08 4.6,0 6.5,7.27 6.5,7.67 0,0.5 -0.5,0.5 -0.6,0.5 -0.5,0 -0.5,-0.15 -0.8,-0.9 -1,-3.38 -2.6,-6.17 -5.1,-6.17 -0.8,0 -1.1,0.5 -1.1,1.64 0,1.25 0.4,2.45 0.9,3.54 0.9,2.64 3,8.11 3,10.96 0,3.34 -2.1,5.32 -5.7,5.32 -4.5,0 -7,-3.18 -7.8,-4.32 -0.3,2.79 -2.3,4.32 -4.6,4.32 -2.3,0 -3.2,-1.93 -3.7,-2.82 -0.8,-1.71 -1.5,-4.64 -1.5,-4.85 0,-0.5 0.5,-0.5 0.6,-0.5 0.5,0 0.5,0.07 0.8,1.16 0.9,3.53 1.9,5.92 3.7,5.92 1,0 1.5,-0.64 1.5,-2.28 0,-1.05 -0.1,-1.61 -0.8,-4.19 z"
           id="path2948"
           inkscape:connector-curvature="0"
           style="fill:#000000;stroke-width:0" /><path
           d="m 1088.7,429.7 h -1.2 c -0.1,-0.76 -0.4,-2.82 -0.9,-3.17 -0.2,-0.2 -2.9,-0.2 -3.4,-0.2 h -6.4 c 3.6,3.23 4.8,4.2 6.9,5.84 2.6,2.06 5,4.22 5,7.53 0,4.22 -3.7,6.8 -8.1,6.8 -4.4,0 -7.3,-3.03 -7.3,-6.23 0,-1.79 1.5,-1.96 1.9,-1.96 0.8,0 1.8,0.6 1.8,1.85 0,0.62 -0.2,1.84 -2.1,1.84 1.1,2.47 3.5,3.23 5.1,3.23 3.5,0 5.3,-2.7 5.3,-5.53 0,-3.03 -2.1,-5.43 -3.2,-6.68 l -8.4,-8.3 c -0.4,-0.31 -0.4,-0.39 -0.4,-1.36 h 14.4 z"
           id="path2950"
           inkscape:connector-curvature="0"
           style="fill:#000000;stroke-width:0" /><path
           d="m 1084.7,405.11 -0.1,-0.03 v -0.03 l -0.1,-0.03 -0.1,-0.03 v -0.04 l -0.1,-0.03 v -0.04 -0.04 l -0.1,-0.04 v -0.04 l -0.1,-0.04 v -0.04 l -0.1,-0.05 v -0.04 -0.05 l -0.1,-0.05 v -0.05 -0.05 -0.05 l -0.1,-0.05 v -0.06 -0.05 -0.06 -0.06 l -0.1,-0.05 v -0.06 -0.06 -0.06 -0.07 -0.06 -0.06 -0.07 c 0,-0.95 0.7,-1.64 1.6,-1.64 1,0 1.7,0.6 1.7,1.71 0,3.11 -4.8,3.11 -5.8,3.11 -5.2,0 -8.5,-4.02 -8.5,-8.02 0,-4.39 3.7,-7.87 8.3,-7.87 5.2,0 6.4,4.1 6.4,4.53 0,0.4 -0.4,0.4 -0.6,0.4 -0.4,0 -0.4,-0.09 -0.6,-0.59 -0.8,-2.16 -2.6,-3.24 -4.8,-3.24 -2.4,0 -5.5,1.79 -5.5,6.8 0,4.42 2.2,6.86 5.4,6.86 0.5,0 2.1,0 3.4,-0.51 z"
           id="path2952"
           inkscape:connector-curvature="0"
           style="fill:#000000;stroke-width:0" /><path
           d="m 1096.1,415.39 -5.3,-0.39 v -1.25 c 2.4,0 2.6,-0.25 2.6,-1.96 v -17.84 c 0,-1.5 -0.3,-1.5 -2.6,-1.5 v -1.25 c 0.1,0 2.5,0.14 3.9,0.14 1.4,0 2.6,-0.03 4,-0.14 v 1.25 c -2.3,0 -2.6,0 -2.6,1.5 z"
           id="path2954"
           inkscape:connector-curvature="0"
           style="fill:#000000;stroke-width:0" /></g>    </g>
  </g>
  <g
     inkscape:groupmode="layer"
     id="layer9"
     inkscape:label="uw"
     transform="translate(-84.996,-87.438)"
     style="display:none">
    <g
       id="g3465"
       transform="translate(2.2678571,-56.69643)">
      <g
         word-spacing="normal"
         letter-spacing="normal"
         font-size-adjust="none"
         font-stretch="normal"
         font-weight="normal"
         font-variant="normal"
         font-style="normal"
         stroke-miterlimit="10.433"
         xml:space="preserve"
         transform="matrix(0.3,0,0,-0.3,-52.5,222.75)"
         id="g3463"
         style="font-style:normal;font-variant:normal;font-weight:normal;font-stretch:normal;letter-spacing:normal;word-spacing:normal;text-anchor:start;fill:none;fill-opacity:1;fill-rule:evenodd;stroke:#000000;stroke-linecap:butt;stroke-linejoin:miter;stroke-miterlimit:10.43299961;stroke-dasharray:none;stroke-dashoffset:0;stroke-opacity:1"><path
           id="path3445"
           d="m 486.8,434.54 0.23,0.36 0.23,0.33 0.22,0.31 0.22,0.29 0.22,0.28 0.22,0.25 0.22,0.24 0.22,0.22 0.21,0.2 0.21,0.19 0.21,0.17 0.2,0.16 0.21,0.14 0.2,0.13 0.21,0.12 0.19,0.11 0.2,0.09 0.2,0.09 0.19,0.07 0.2,0.07 0.19,0.06 0.19,0.05 0.18,0.04 0.19,0.03 0.18,0.03 0.19,0.03 0.36,0.04 0.35,0.02 0.35,0.02 c 0.6,0.05 0.64,0.89 0.64,0.96 0,0.39 -0.25,0.59 -0.64,0.59 -1.3,0 -2.75,-0.16 -4.09,-0.16 -1.64,0 -3.35,0.16 -4.94,0.16 -0.3,0 -0.94,0 -0.94,-0.95 0,-0.55 0.46,-0.6 0.8,-0.6 1.34,-0.09 2.3,-0.59 2.3,-1.64 0,-0.75 -0.75,-1.84 -0.75,-1.89 l -15.3,-24.31 -3.39,26.34 c 0,0.85 1.14,1.5 3.44,1.5 0.7,0 1.25,0 1.25,1 0,0.44 -0.41,0.55 -0.71,0.55 -1.98,0 -4.14,-0.16 -6.17,-0.16 -0.9,0 -1.84,0.05 -2.75,0.05 -0.89,0 -1.84,0.11 -2.69,0.11 -0.34,0 -0.93,0 -0.93,-0.95 0,-0.6 0.43,-0.6 1.23,-0.6 2.8,0 2.84,-0.45 3,-1.68 l 3.92,-30.75 c 0.16,-1 0.36,-1.14 1,-1.14 0.8,0 1,0.25 1.41,0.89 z"
           inkscape:connector-curvature="0"
           style="fill:#000000;stroke-width:0" /><path
           id="path3447"
           d="m 513.31,430.54 h -1.19 c -0.09,-0.76 -0.45,-2.83 -0.9,-3.17 -0.27,-0.2 -2.95,-0.2 -3.44,-0.2 h -6.42 c 3.66,3.23 4.87,4.2 6.97,5.84 2.58,2.06 4.98,4.22 4.98,7.53 0,4.22 -3.69,6.8 -8.15,6.8 -4.32,0 -7.25,-3.03 -7.25,-6.23 0,-1.79 1.5,-1.96 1.86,-1.96 0.82,0 1.84,0.6 1.84,1.85 0,0.62 -0.25,1.84 -2.06,1.84 1.07,2.47 3.45,3.23 5.09,3.23 3.48,0 5.3,-2.7 5.3,-5.53 0,-3.03 -2.16,-5.43 -3.28,-6.68 l -8.39,-8.3 c -0.36,-0.31 -0.36,-0.39 -0.36,-1.36 h 14.36 z"
           inkscape:connector-curvature="0"
           style="fill:#000000;stroke-width:0" /><path
           id="path3449"
           d="m 566.07,422.5 h 0.14 0.15 0.14 l 0.08,0.01 h 0.07 l 0.07,0.01 0.07,0.01 0.07,0.01 0.07,0.01 0.07,0.01 0.07,0.02 0.06,0.02 0.06,0.02 0.06,0.02 0.06,0.03 0.06,0.03 0.05,0.04 0.05,0.03 0.05,0.05 0.04,0.04 0.04,0.05 0.02,0.03 0.02,0.03 0.01,0.02 0.02,0.03 0.01,0.03 0.02,0.04 0.01,0.03 0.01,0.04 0.01,0.03 0.01,0.04 0.01,0.04 v 0.04 l 0.01,0.04 v 0.04 0.04 0.05 c 0,1 -0.95,1 -1.64,1 h -29.84 c -0.71,0 -1.64,0 -1.64,-1 0,-0.98 0.93,-0.98 1.68,-0.98 z"
           inkscape:connector-curvature="0"
           style="fill:#000000;stroke-width:0" /><path
           id="path3451"
           d="m 566.12,412.82 h 0.07 0.06 l 0.14,0.01 h 0.14 0.07 l 0.07,0.01 0.07,0.01 h 0.07 l 0.06,0.01 0.07,0.02 0.07,0.01 0.06,0.02 0.07,0.02 0.06,0.02 0.06,0.02 0.06,0.03 0.05,0.03 0.05,0.04 0.05,0.04 0.05,0.04 0.04,0.05 0.02,0.02 0.02,0.03 0.02,0.02 0.02,0.03 0.01,0.03 0.02,0.03 0.01,0.03 0.02,0.03 0.01,0.04 0.01,0.03 0.01,0.04 0.01,0.04 0.01,0.04 v 0.04 l 0.01,0.04 v 0.04 0.05 0.04 c 0,1 -0.95,1 -1.69,1 h -29.75 c -0.75,0 -1.68,0 -1.68,-1 0,-1 0.93,-1 1.64,-1 z"
           inkscape:connector-curvature="0"
           style="fill:#000000;stroke-width:0" /><path
           id="path3453"
           d="m 601.84,409 0.05,-0.19 0.06,-0.19 0.07,-0.18 0.08,-0.18 0.08,-0.17 0.09,-0.16 0.09,-0.16 0.1,-0.16 0.1,-0.15 0.12,-0.15 0.11,-0.14 0.13,-0.13 0.12,-0.13 0.14,-0.12 0.13,-0.12 0.15,-0.11 0.14,-0.11 0.16,-0.1 0.15,-0.09 0.16,-0.09 0.17,-0.08 0.17,-0.07 0.17,-0.07 0.17,-0.06 0.18,-0.06 0.19,-0.04 0.18,-0.05 0.19,-0.03 0.19,-0.02 0.2,-0.02 0.19,-0.01 0.2,-0.01 c 1.74,0 2.89,1.14 3.69,2.74 0.84,1.79 1.49,4.84 1.49,4.93 0,0.5 -0.44,0.5 -0.6,0.5 -0.5,0 -0.55,-0.2 -0.7,-0.9 -0.69,-2.78 -1.64,-6.17 -3.74,-6.17 -1.04,0 -1.53,0.65 -1.53,2.29 0,1.1 0.6,3.44 0.99,5.17 l 1.4,5.4 c 0.14,0.75 0.64,2.64 0.85,3.39 0.25,1.14 0.75,3.03 0.75,3.32 0,0.91 -0.71,1.35 -1.46,1.35 -0.25,0 -1.54,-0.05 -1.93,-1.74 -0.96,-3.64 -3.14,-12.36 -3.74,-15 -0.06,-0.2 -2.04,-4.18 -5.69,-4.18 -2.59,0 -3.09,2.25 -3.09,4.09 0,2.78 1.41,6.72 2.7,10.16 0.6,1.5 0.85,2.18 0.85,3.14 0,2.23 -1.6,4.07 -4.1,4.07 -4.73,0 -6.57,-7.21 -6.57,-7.67 0,-0.5 0.5,-0.5 0.61,-0.5 0.5,0 0.54,0.11 0.79,0.91 1.24,4.33 3.14,6.17 5.03,6.17 0.44,0 1.25,-0.05 1.25,-1.64 0,-1.2 -0.56,-2.64 -0.86,-3.39 -1.84,-4.94 -2.89,-8.02 -2.89,-10.45 0,-4.74 3.44,-5.99 6.14,-5.99 3.29,0 5.08,2.24 5.93,3.35 z"
           inkscape:connector-curvature="0"
           style="fill:#000000;stroke-width:0" /><path
           id="path3455"
           d="m 630.55,430.54 h -1.18 c -0.1,-0.76 -0.46,-2.83 -0.91,-3.17 -0.26,-0.2 -2.95,-0.2 -3.44,-0.2 h -6.42 c 3.66,3.23 4.88,4.2 6.97,5.84 2.58,2.06 4.98,4.22 4.98,7.53 0,4.22 -3.68,6.8 -8.15,6.8 -4.31,0 -7.25,-3.03 -7.25,-6.23 0,-1.79 1.5,-1.96 1.86,-1.96 0.83,0 1.84,0.6 1.84,1.85 0,0.62 -0.25,1.84 -2.06,1.84 1.08,2.47 3.45,3.23 5.09,3.23 3.49,0 5.3,-2.7 5.3,-5.53 0,-3.03 -2.16,-5.43 -3.28,-6.68 l -8.39,-8.3 c -0.36,-0.31 -0.36,-0.39 -0.36,-1.36 h 14.36 z"
           inkscape:connector-curvature="0"
           style="fill:#000000;stroke-width:0" /><path
           id="path3457"
           d="m 666.82,417.65 h 13.9 c 0.69,0 1.64,0 1.64,1 0,1 -0.95,1 -1.64,1 h -13.9 v 13.96 c 0,0.68 0,1.64 -1,1.64 -0.99,0 -0.99,-0.96 -0.99,-1.64 v -13.96 h -13.95 c -0.7,0 -1.64,0 -1.64,-1 0,-1 0.94,-1 1.64,-1 h 13.95 v -13.94 c 0,-0.7 0,-1.65 0.99,-1.65 1,0 1,0.95 1,1.65 z"
           inkscape:connector-curvature="0"
           style="fill:#000000;stroke-width:0" /><path
           id="path3459"
           d="m 719.25,423.09 0.03,0.1 0.02,0.11 0.03,0.12 0.03,0.11 0.03,0.12 0.03,0.12 0.06,0.25 0.06,0.25 0.06,0.25 0.06,0.24 0.06,0.25 0.03,0.11 0.03,0.12 0.03,0.11 0.02,0.11 0.03,0.1 0.02,0.1 0.02,0.1 0.02,0.09 0.02,0.08 0.02,0.08 0.01,0.07 0.01,0.06 0.01,0.06 0.01,0.05 v 0.04 0.03 c 0,0.91 -0.7,1.35 -1.45,1.35 -0.59,0 -1.48,-0.39 -1.83,-1.39 -0.15,-0.35 -2.5,-9.86 -2.84,-11.16 -0.36,-1.5 -0.45,-2.39 -0.45,-3.3 0,-0.54 0,-0.64 0.04,-0.89 -1.14,-2.64 -2.64,-4.18 -4.57,-4.18 -3.99,0 -3.99,3.68 -3.99,4.53 0,1.59 0.25,3.54 2.59,9.67 0.55,1.48 0.85,2.19 0.85,3.19 0,2.23 -1.64,4.07 -4.1,4.07 -4.73,0 -6.57,-7.21 -6.57,-7.67 0,-0.5 0.5,-0.5 0.6,-0.5 0.5,0 0.55,0.11 0.8,0.91 1.35,4.62 3.28,6.17 5.03,6.17 0.44,0 1.25,-0.05 1.25,-1.64 0,-1.25 -0.56,-2.64 -0.9,-3.48 -2.19,-5.88 -2.78,-8.18 -2.78,-10.07 0,-4.53 3.32,-6.28 7.06,-6.28 0.86,0 3.19,0 5.19,3.49 1.29,-3.19 4.73,-3.49 6.23,-3.49 3.74,0 5.92,3.14 7.22,6.13 1.69,3.89 3.28,10.56 3.28,12.95 0,2.75 -1.34,3.48 -2.19,3.48 -1.25,0 -2.48,-1.29 -2.48,-2.39 0,-0.64 0.29,-0.93 0.73,-1.34 0.55,-0.55 1.8,-1.84 1.8,-4.23 0,-1.69 -1.44,-6.58 -2.74,-9.11 -1.29,-2.64 -3.04,-4.39 -5.48,-4.39 -2.34,0 -3.69,1.5 -3.69,4.32 0,1.41 0.35,2.96 0.55,3.64 z"
           inkscape:connector-curvature="0"
           style="fill:#000000;stroke-width:0" /><path
           id="path3461"
           d="m 750.79,430.54 h -1.19 c -0.09,-0.76 -0.45,-2.83 -0.9,-3.17 -0.27,-0.2 -2.95,-0.2 -3.44,-0.2 h -6.42 c 3.66,3.23 4.88,4.2 6.97,5.84 2.58,2.06 4.98,4.22 4.98,7.53 0,4.22 -3.69,6.8 -8.15,6.8 -4.32,0 -7.25,-3.03 -7.25,-6.23 0,-1.79 1.5,-1.96 1.86,-1.96 0.82,0 1.84,0.6 1.84,1.85 0,0.62 -0.25,1.84 -2.06,1.84 1.07,2.47 3.45,3.23 5.09,3.23 3.48,0 5.3,-2.7 5.3,-5.53 0,-3.03 -2.16,-5.43 -3.28,-6.68 l -8.39,-8.3 c -0.36,-0.31 -0.36,-0.39 -0.36,-1.36 h 14.36 z"
           inkscape:connector-curvature="0"
           style="fill:#000000;stroke-width:0" /></g>    </g>
  </g>
</svg>
