<?xml version="1.0" encoding="UTF-8" standalone="no"?>
<!-- Created with Inkscape (http://www.inkscape.org/) -->

<svg
   xmlns:dc="http://purl.org/dc/elements/1.1/"
   xmlns:cc="http://creativecommons.org/ns#"
   xmlns:rdf="http://www.w3.org/1999/02/22-rdf-syntax-ns#"
   xmlns:svg="http://www.w3.org/2000/svg"
   xmlns="http://www.w3.org/2000/svg"
   xmlns:xlink="http://www.w3.org/1999/xlink"
   xmlns:sodipodi="http://sodipodi.sourceforge.net/DTD/sodipodi-0.dtd"
   xmlns:inkscape="http://www.inkscape.org/namespaces/inkscape"
   version="1.1"
   id="svg2"
   xml:space="preserve"
   width="209.39694"
   height="280.97516"
   viewBox="0 0 209.39694 280.97515"
   sodipodi:docname="u_w_plane.svg"
   inkscape:version="0.92.2 2405546, 2018-03-11"
   inkscape:export-filename="/home/ch/archiv/PycharmProjects/liblp/doc_etc/u_w_plane.png"
   inkscape:export-xdpi="599"
   inkscape:export-ydpi="599"><metadata
     id="metadata8"><rdf:RDF><cc:Work
         rdf:about=""><dc:format>image/svg+xml</dc:format><dc:type
           rdf:resource="http://purl.org/dc/dcmitype/StillImage" /><dc:title /></cc:Work></rdf:RDF></metadata><defs
     id="defs6"><clipPath
       clipPathUnits="userSpaceOnUse"
       id="clipPath130"><path
         d="M 18,15.84 H 129.6 V 126.72 H 18 Z"
         id="path128"
         inkscape:connector-curvature="0" /></clipPath><clipPath
       clipPathUnits="userSpaceOnUse"
       id="clipPath140"><path
         d="M 18,15.84 H 129.6 V 126.72 H 18 Z"
         id="path138"
         inkscape:connector-curvature="0" /></clipPath><clipPath
       clipPathUnits="userSpaceOnUse"
       id="clipPath150"><path
         d="M 18,15.84 H 129.6 V 126.72 H 18 Z"
         id="path148"
         inkscape:connector-curvature="0" /></clipPath><clipPath
       clipPathUnits="userSpaceOnUse"
       id="clipPath160"><path
         d="M 18,15.84 H 129.6 V 126.72 H 18 Z"
         id="path158"
         inkscape:connector-curvature="0" /></clipPath><clipPath
       clipPathUnits="userSpaceOnUse"
       id="clipPath170"><path
         d="M 18,15.84 H 129.6 V 126.72 H 18 Z"
         id="path168"
         inkscape:connector-curvature="0" /></clipPath><clipPath
       clipPathUnits="userSpaceOnUse"
       id="clipPath180"><path
         d="M 18,15.84 H 129.6 V 126.72 H 18 Z"
         id="path178"
         inkscape:connector-curvature="0" /></clipPath><clipPath
       clipPathUnits="userSpaceOnUse"
       id="clipPath190"><path
         d="M 18,15.84 H 129.6 V 126.72 H 18 Z"
         id="path188"
         inkscape:connector-curvature="0" /></clipPath><clipPath
       clipPathUnits="userSpaceOnUse"
       id="clipPath200"><path
         d="M 18,15.84 H 129.6 V 126.72 H 18 Z"
         id="path198"
         inkscape:connector-curvature="0" /></clipPath><clipPath
       clipPathUnits="userSpaceOnUse"
       id="clipPath210"><path
         d="M 18,15.84 H 129.6 V 126.72 H 18 Z"
         id="path208"
         inkscape:connector-curvature="0" /></clipPath><clipPath
       clipPathUnits="userSpaceOnUse"
       id="clipPath220"><path
         d="M 18,15.84 H 129.6 V 126.72 H 18 Z"
         id="path218"
         inkscape:connector-curvature="0" /></clipPath></defs><sodipodi:namedview
     pagecolor="#ffffff"
     bordercolor="#666666"
     borderopacity="1"
     objecttolerance="10"
     gridtolerance="10"
     guidetolerance="10"
     inkscape:pageopacity="0"
     inkscape:pageshadow="2"
     inkscape:window-width="1366"
     inkscape:window-height="739"
     id="namedview4"
     showgrid="false"
     inkscape:zoom="1.7383042"
     inkscape:cx="-53.352825"
     inkscape:cy="148.19899"
     inkscape:window-x="0"
     inkscape:window-y="0"
     inkscape:window-maximized="1"
     inkscape:current-layer="layer6"
     fit-margin-top="0"
     fit-margin-left="0"
     fit-margin-right="0"
     fit-margin-bottom="0" /><g
     id="g10"
     inkscape:groupmode="layer"
     inkscape:label="u_w_plane_raw"
     transform="matrix(1.3333333,0,0,-1.3333333,17.396954,262.67569)"><path
   d="M 0,0 H 144 V 144 H 0 Z"
   style="fill:#ffffff;fill-opacity:1;fill-rule:nonzero;stroke:none"
   id="path12"
   inkscape:connector-curvature="0" /><path
   d="M 18,15.84 H 129.6 V 126.72 H 18 Z"
   style="fill:#ffffff;fill-opacity:1;fill-rule:nonzero;stroke:none"
   id="path14"
   inkscape:connector-curvature="0" /><path
   d="m 18,15.84 v -3.5"
   style="fill:#000000;fill-opacity:1;fill-rule:nonzero;stroke:#000000;stroke-width:0.80000001;stroke-linecap:butt;stroke-linejoin:round;stroke-miterlimit:10;stroke-dasharray:none;stroke-opacity:1"
   id="path16"
   inkscape:connector-curvature="0" /><text
   transform="matrix(1,0,0,-1,14.820313,1.24625)"
   style="font-variant:normal;font-weight:normal;font-size:10px;font-family:'DejaVu Sans';-inkscape-font-specification:DejaVuSans;writing-mode:lr-tb;fill:#000000;fill-opacity:1;fill-rule:nonzero;stroke:none"
   id="text20"><tspan
     x="0"
     y="0"
     id="tspan18">0</tspan></text>

<path
   d="m 31.95,15.84 v -3.5"
   style="fill:#000000;fill-opacity:1;fill-rule:nonzero;stroke:#000000;stroke-width:0.80000001;stroke-linecap:butt;stroke-linejoin:round;stroke-miterlimit:10;stroke-dasharray:none;stroke-opacity:1"
   id="path22"
   inkscape:connector-curvature="0" /><path
   d="m 45.9,15.84 v -3.5"
   style="fill:#000000;fill-opacity:1;fill-rule:nonzero;stroke:#000000;stroke-width:0.80000001;stroke-linecap:butt;stroke-linejoin:round;stroke-miterlimit:10;stroke-dasharray:none;stroke-opacity:1"
   id="path28"
   inkscape:connector-curvature="0" /><text
   transform="matrix(1,0,0,-1,42.720313,1.24625)"
   style="font-variant:normal;font-weight:normal;font-size:10px;font-family:'DejaVu Sans';-inkscape-font-specification:DejaVuSans;writing-mode:lr-tb;fill:#000000;fill-opacity:1;fill-rule:nonzero;stroke:none"
   id="text32"><tspan
     x="0"
     y="0"
     id="tspan30">2</tspan></text>

<path
   d="m 59.85,15.84 v -3.5"
   style="fill:#000000;fill-opacity:1;fill-rule:nonzero;stroke:#000000;stroke-width:0.80000001;stroke-linecap:butt;stroke-linejoin:round;stroke-miterlimit:10;stroke-dasharray:none;stroke-opacity:1"
   id="path34"
   inkscape:connector-curvature="0" /><path
   d="m 73.8,15.84 v -3.5"
   style="fill:#000000;fill-opacity:1;fill-rule:nonzero;stroke:#000000;stroke-width:0.80000001;stroke-linecap:butt;stroke-linejoin:round;stroke-miterlimit:10;stroke-dasharray:none;stroke-opacity:1"
   id="path40"
   inkscape:connector-curvature="0" /><text
   transform="matrix(1,0,0,-1,70.620312,1.24625)"
   style="font-variant:normal;font-weight:normal;font-size:10px;font-family:'DejaVu Sans';-inkscape-font-specification:DejaVuSans;writing-mode:lr-tb;fill:#000000;fill-opacity:1;fill-rule:nonzero;stroke:none"
   id="text44"><tspan
     x="0"
     y="0"
     id="tspan42">4</tspan></text>

<path
   d="m 87.75,15.84 v -3.5"
   style="fill:#000000;fill-opacity:1;fill-rule:nonzero;stroke:#000000;stroke-width:0.80000001;stroke-linecap:butt;stroke-linejoin:round;stroke-miterlimit:10;stroke-dasharray:none;stroke-opacity:1"
   id="path46"
   inkscape:connector-curvature="0" /><path
   d="m 101.7,15.84 v -3.5"
   style="fill:#000000;fill-opacity:1;fill-rule:nonzero;stroke:#000000;stroke-width:0.80000001;stroke-linecap:butt;stroke-linejoin:round;stroke-miterlimit:10;stroke-dasharray:none;stroke-opacity:1"
   id="path52"
   inkscape:connector-curvature="0" /><text
   transform="matrix(1,0,0,-1,98.520312,1.24625)"
   style="font-variant:normal;font-weight:normal;font-size:10px;font-family:'DejaVu Sans';-inkscape-font-specification:DejaVuSans;writing-mode:lr-tb;fill:#000000;fill-opacity:1;fill-rule:nonzero;stroke:none"
   id="text56"><tspan
     x="0"
     y="0"
     id="tspan54">6</tspan></text>

<path
   d="m 115.65,15.84 v -3.5"
   style="fill:#000000;fill-opacity:1;fill-rule:nonzero;stroke:#000000;stroke-width:0.80000001;stroke-linecap:butt;stroke-linejoin:round;stroke-miterlimit:10;stroke-dasharray:none;stroke-opacity:1"
   id="path58"
   inkscape:connector-curvature="0" /><path
   d="m 129.6,15.84 v -3.5"
   style="fill:#000000;fill-opacity:1;fill-rule:nonzero;stroke:#000000;stroke-width:0.80000001;stroke-linecap:butt;stroke-linejoin:round;stroke-miterlimit:10;stroke-dasharray:none;stroke-opacity:1"
   id="path64"
   inkscape:connector-curvature="0" /><text
   transform="matrix(1,0,0,-1,126.42031,1.24625)"
   style="font-variant:normal;font-weight:normal;font-size:10px;font-family:'DejaVu Sans';-inkscape-font-specification:DejaVuSans;writing-mode:lr-tb;fill:#000000;fill-opacity:1;fill-rule:nonzero;stroke:none"
   id="text68"><tspan
     x="0"
     y="0"
     id="tspan66">8</tspan></text>

<path
   d="M 18,15.84 H 14.5"
   style="fill:#000000;fill-opacity:1;fill-rule:nonzero;stroke:#000000;stroke-width:0.80000001;stroke-linecap:butt;stroke-linejoin:round;stroke-miterlimit:10;stroke-dasharray:none;stroke-opacity:1"
   id="path70"
   inkscape:connector-curvature="0" /><text
   transform="matrix(1,0,0,-1,4.640625,12.043125)"
   style="font-variant:normal;font-weight:normal;font-size:10px;font-family:'DejaVu Sans';-inkscape-font-specification:DejaVuSans;writing-mode:lr-tb;fill:#000000;fill-opacity:1;fill-rule:nonzero;stroke:none"
   id="text74"><tspan
     x="0"
     y="0"
     id="tspan72">0</tspan></text>

<path
   d="M 18,29.7 H 14.5"
   style="fill:#000000;fill-opacity:1;fill-rule:nonzero;stroke:#000000;stroke-width:0.80000001;stroke-linecap:butt;stroke-linejoin:round;stroke-miterlimit:10;stroke-dasharray:none;stroke-opacity:1"
   id="path76"
   inkscape:connector-curvature="0" /><path
   d="M 18,43.56 H 14.5"
   style="fill:#000000;fill-opacity:1;fill-rule:nonzero;stroke:#000000;stroke-width:0.80000001;stroke-linecap:butt;stroke-linejoin:round;stroke-miterlimit:10;stroke-dasharray:none;stroke-opacity:1"
   id="path82"
   inkscape:connector-curvature="0" /><text
   transform="matrix(1,0,0,-1,4.640625,39.763125)"
   style="font-variant:normal;font-weight:normal;font-size:10px;font-family:'DejaVu Sans';-inkscape-font-specification:DejaVuSans;writing-mode:lr-tb;fill:#000000;fill-opacity:1;fill-rule:nonzero;stroke:none"
   id="text86"><tspan
     x="0"
     y="0"
     id="tspan84">2</tspan></text>

<path
   d="M 18,57.42 H 14.5"
   style="fill:#000000;fill-opacity:1;fill-rule:nonzero;stroke:#000000;stroke-width:0.80000001;stroke-linecap:butt;stroke-linejoin:round;stroke-miterlimit:10;stroke-dasharray:none;stroke-opacity:1"
   id="path88"
   inkscape:connector-curvature="0" /><path
   d="M 18,71.28 H 14.5"
   style="fill:#000000;fill-opacity:1;fill-rule:nonzero;stroke:#000000;stroke-width:0.80000001;stroke-linecap:butt;stroke-linejoin:round;stroke-miterlimit:10;stroke-dasharray:none;stroke-opacity:1"
   id="path94"
   inkscape:connector-curvature="0" /><text
   transform="matrix(1,0,0,-1,4.640625,67.483125)"
   style="font-variant:normal;font-weight:normal;font-size:10px;font-family:'DejaVu Sans';-inkscape-font-specification:DejaVuSans;writing-mode:lr-tb;fill:#000000;fill-opacity:1;fill-rule:nonzero;stroke:none"
   id="text98"><tspan
     x="0"
     y="0"
     id="tspan96">4</tspan></text>

<path
   d="M 18,85.14 H 14.5"
   style="fill:#000000;fill-opacity:1;fill-rule:nonzero;stroke:#000000;stroke-width:0.80000001;stroke-linecap:butt;stroke-linejoin:round;stroke-miterlimit:10;stroke-dasharray:none;stroke-opacity:1"
   id="path100"
   inkscape:connector-curvature="0" /><path
   d="M 18,99 H 14.5"
   style="fill:#000000;fill-opacity:1;fill-rule:nonzero;stroke:#000000;stroke-width:0.80000001;stroke-linecap:butt;stroke-linejoin:round;stroke-miterlimit:10;stroke-dasharray:none;stroke-opacity:1"
   id="path106"
   inkscape:connector-curvature="0" /><text
   transform="matrix(1,0,0,-1,4.640625,95.203125)"
   style="font-variant:normal;font-weight:normal;font-size:10px;font-family:'DejaVu Sans';-inkscape-font-specification:DejaVuSans;writing-mode:lr-tb;fill:#000000;fill-opacity:1;fill-rule:nonzero;stroke:none"
   id="text110"><tspan
     x="0"
     y="0"
     id="tspan108">6</tspan></text>

<path
   d="M 18,112.86 H 14.5"
   style="fill:#000000;fill-opacity:1;fill-rule:nonzero;stroke:#000000;stroke-width:0.80000001;stroke-linecap:butt;stroke-linejoin:round;stroke-miterlimit:10;stroke-dasharray:none;stroke-opacity:1"
   id="path112"
   inkscape:connector-curvature="0" /><path
   d="M 18,126.72 H 14.5"
   style="fill:#000000;fill-opacity:1;fill-rule:nonzero;stroke:#000000;stroke-width:0.80000001;stroke-linecap:butt;stroke-linejoin:round;stroke-miterlimit:10;stroke-dasharray:none;stroke-opacity:1"
   id="path118"
   inkscape:connector-curvature="0" /><text
   transform="matrix(1,0,0,-1,4.640625,122.92313)"
   style="font-variant:normal;font-weight:normal;font-size:10px;font-family:'DejaVu Sans';-inkscape-font-specification:DejaVuSans;writing-mode:lr-tb;fill:#000000;fill-opacity:1;fill-rule:nonzero;stroke:none"
   id="text122"><tspan
     x="0"
     y="0"
     id="tspan120">8</tspan></text>

<g
   id="g124"><g
     id="g126"
     clip-path="url(#clipPath130)"><path
       d="m 27.272072,16.061982 1.340541,0.443964 0.67027,0.332973 1.117117,0.665946 2.904505,2.996757 v 0.110991 l 0.558558,0.665946 v 0.110991 l 0.446847,0.554955 v 0.11099 l 0.335135,0.443964 v 0.110991 l 0.335135,0.443964 v 0.110991 l 0.223424,0.332973 v 0.110991 l 0.335135,0.443964 v 0.110991 l 0.223423,0.332973 v 0.110991 l 0.223424,0.332973 v 0.110991 l 0.223423,0.332973 v 0.110991 l 0.223423,0.332973 v 0.110991 l 0.111712,0.221982 v 0.110991 l 0.223424,0.332973 v 0.110991 l 0.223423,0.332973 v 0.221982 l 0.223423,0.332973 v 0.221982 L 37.437838,28.16 v 0.221982 l 0.223423,0.332973 v 0.221982 l 0.223424,0.332973 v 0.221982 l 0.111711,0.221982 v 0.110991 l 0.111712,0.221982 v 0.110991 l 0.111712,0.221982 v 0.110991 l 0.223423,0.332973 v 0.221982 l 0.111712,0.221982 v 0.110991 l 0.111712,0.221982 v 0.110991 l 0.111711,0.221982 v 0.221982 l 0.111712,0.221982 v 0.110991 l 0.111712,0.221982 v 0.110991 l 0.111712,0.221982 v 0.110991 l 0.111711,0.221982 v 0.110991 l 0.111712,0.221982 v 0.221982 l 0.111712,0.221982 v 0.110991 l 0.111711,0.221981 v 0.221982 l 0.111712,0.221982 v 0.110991 l 0.111712,0.221982 v 0.221982 l 0.111711,0.221982 v 0.221982 l 0.111712,0.221982 v 0.221982 l 0.111712,0.221982 v 0.221982 l 0.111712,0.221982 v 0.110991 l 0.111711,0.221982 v 0.221982 l 0.111712,0.221982 v 0.332973 l 0.111712,0.221982 v 0.221982 l 0.111711,0.221982 v 0.221982 l 0.111712,0.221982 v 0.221982 l 0.111712,0.221982 v 0.332973 l 0.111712,0.221982 V 40.48 l 0.111711,0.221982 v 0.332973 l 0.111712,0.221982 v 0.332973 l 0.111712,0.221982 v 0.332973 l 0.111711,0.221982 v 0.332973 l 0.111712,0.221982 v 0.332973 l 0.111712,0.221982 v 0.332973 l 0.111712,0.221982 v 0.332973 l 0.111711,0.221982 v 0.332973 l 0.111712,0.221982 v 0.443964 l 0.111712,0.221982 v 0.443964 l 0.111711,0.221982 v 0.332972 l 0.111712,0.221982 v 0.443964 l 0.111712,0.221982 v 0.443964 l 0.111712,0.221982 v 0.554955 l 0.111711,0.221982 v 0.443964 L 42.8,49.803243 v 0.554955 l 0.111712,0.221982 v 0.443964 l 0.111711,0.221982 v 0.554955 l 0.111712,0.221982 v 0.554955 L 43.246847,52.8 v 0.554955 l 0.111712,0.221982 v 0.665946 l 0.111711,0.221982 v 0.554955 l 0.111712,0.221982 v 0.665946 l 0.111712,0.221982 v 0.665946 l 0.111711,0.221982 v 0.665946 l 0.111712,0.221982 v 0.776937 l 0.111712,0.221982 v 0.776936 l 0.111712,0.221982 v 0.776937 l 0.111711,0.221982 v 0.776937 l 0.111712,0.221982 v 0.776937 l 0.111712,0.221982 v 0.887928 l 0.111711,0.221982 v 0.887928 L 44.699099,65.12 v 0.998919 l 0.111712,0.221982 v 0.998919 l 0.111712,0.221982 v 0.998919 l 0.111711,0.221982 v 0.998919 l 0.111712,0.221982 v 1.10991 l 0.111712,0.221981 v 1.220901 l 0.111711,0.221982 v 1.10991 l 0.111712,0.221982 v 1.331892 l 0.111712,0.221982 v 1.220901 l 0.111712,0.221982 v 1.442883 l 0.111711,0.221982 v 1.331892 l 0.111712,0.221982 v 1.553874 l 0.111712,0.221982 v 1.553873 l 0.111711,0.221982 v 1.553874 l 0.111712,0.221982 v 1.775856 l 0.111712,0.221982 v 1.775856 l 0.111711,0.221982 v 1.886847 l 0.111712,0.221982 v 1.886847 l 0.111712,0.221982 v 2.108828 l 0.111712,0.221982 v 2.108829 l 0.111711,0.221982 v 2.330812 l 0.111712,0.22198 v 2.4418 l 0.111712,0.22199 v 2.4418 l 0.111711,0.22198 v 2.77477 l 0.111712,0.22199 v 2.77477 l 0.111712,0.22198 v 2.99676 l 0.111712,0.22198 v 3.21874 l 0.111711,0.22198 v 3.32973 l 0.111712,0.22198 v 3.66271 l 0.111712,0.22198 v 0.22198 0"
       style="fill:none;stroke:#1f77b4;stroke-width:1.5;stroke-linecap:square;stroke-linejoin:round;stroke-miterlimit:10;stroke-dasharray:none;stroke-opacity:1"
       id="path132"
       inkscape:connector-curvature="0" /></g></g><g
   id="g134"><g
     id="g136"
     clip-path="url(#clipPath140)"><path
       d="m 72.18018,15.950991 0.781982,1.442883 0.335135,0.887928 v 0.110991 l 0.335135,0.887928 v 0.221982 l 0.223424,0.665946 v 0.110991 l 0.111712,0.221982 v 0.221982 l 0.111711,0.221982 v 0.110991 l 0.111712,0.221982 v 0.221982 l 0.111712,0.221982 v 0.221982 l 0.111711,0.221981 v 0.110991 l 0.111712,0.221982 v 0.221982 l 0.111712,0.221982 v 0.221982 l 0.111712,0.221982 v 0.221982 l 0.111711,0.221982 v 0.221982 l 0.111712,0.221982 v 0.221982 l 0.111712,0.221982 v 0.221982 l 0.111711,0.221982 v 0.221982 l 0.111712,0.221982 v 0.221982 l 0.111712,0.221982 v 0.332973 l 0.111712,0.221982 v 0.221982 l 0.111711,0.221982 v 0.221982 l 0.111712,0.221982 v 0.221982 l 0.111712,0.221982 v 0.332973 l 0.111711,0.221982 v 0.221982 l 0.111712,0.221982 v 0.221982 l 0.111712,0.221982 v 0.332973 l 0.111712,0.221982 v 0.221982 l 0.111711,0.221982 v 0.332973 l 0.111712,0.221982 v 0.221982 l 0.111712,0.221982 v 0.332973 l 0.111711,0.221982 v 0.332973 l 0.111712,0.221982 v 0.221982 l 0.111712,0.221982 v 0.332973 l 0.111711,0.221982 v 0.332973 l 0.111712,0.221982 v 0.332972 l 0.111712,0.221982 v 0.332973 l 0.111712,0.221982 v 0.332973 l 0.111711,0.221982 v 0.332973 l 0.111712,0.221982 v 0.332973 l 0.111712,0.221982 v 0.332973 l 0.111711,0.221982 v 0.332973 l 0.111712,0.221982 v 0.332973 l 0.111712,0.221982 v 0.332973 l 0.111712,0.221982 v 0.332973 l 0.111711,0.221982 v 0.443964 l 0.111712,0.221982 v 0.332973 l 0.111712,0.221982 v 0.443964 l 0.111711,0.221982 v 0.332973 l 0.111712,0.221982 v 0.443964 l 0.111712,0.221982 v 0.332973 l 0.111712,0.221982 v 0.443964 l 0.111711,0.221982 v 0.332973 l 0.111712,0.221982 v 0.443964 l 0.111712,0.221982 v 0.443964 l 0.111711,0.221982 v 0.443964 l 0.111712,0.221982 v 0.443963 l 0.111712,0.221982 v 0.443964 l 0.111712,0.221982 v 0.443964 l 0.111711,0.221982 v 0.443964 L 80,49.137297 v 0.443964 l 0.111712,0.221982 v 0.554955 l 0.111711,0.221982 v 0.443964 l 0.111712,0.221982 v 0.554955 l 0.111712,0.221982 v 0.443964 l 0.111712,0.221982 v 0.554955 l 0.111711,0.221982 v 0.443964 l 0.111712,0.221982 v 0.554955 l 0.111712,0.221982 v 0.554955 l 0.111711,0.221982 v 0.554955 l 0.111712,0.221982 v 0.554955 l 0.111712,0.221982 v 0.554955 l 0.111712,0.221982 v 0.554955 l 0.111711,0.221982 v 0.665945 l 0.111712,0.221982 v 0.554955 l 0.111712,0.221982 v 0.665946 l 0.111711,0.221982 v 0.554955 l 0.111712,0.221982 v 0.665946 l 0.111712,0.221982 v 0.665946 l 0.111712,0.221982 v 0.665946 l 0.111711,0.221982 v 0.665946 l 0.111712,0.221982 v 0.665946 l 0.111712,0.221982 v 0.665946 l 0.111711,0.221982 v 0.776937 l 0.111712,0.221982 v 0.665946 l 0.111712,0.221982 v 0.776937 l 0.111712,0.221982 v 0.776937 l 0.111711,0.221981 v 0.776937 l 0.111712,0.221982 v 0.776937 l 0.111712,0.221982 v 0.776937 l 0.111711,0.221982 v 0.887928 l 0.111712,0.221982 v 0.776937 l 0.111712,0.221982 v 0.887928 l 0.111711,0.221982 v 0.887928 l 0.111712,0.221982 v 0.887928 l 0.111712,0.221982 v 0.887928 l 0.111712,0.221982 v 0.887928 l 0.111711,0.221982 v 0.998919 l 0.111712,0.221982 v 0.998918 l 0.111712,0.221982 v 0.998919 l 0.111711,0.221982 v 0.998919 l 0.111712,0.221982 v 0.998919 l 0.111712,0.221982 v 1.10991 l 0.111712,0.221982 v 1.10991 l 0.111711,0.221982 v 1.10991 l 0.111712,0.221982 v 1.10991 l 0.111712,0.221982 v 1.220901 l 0.111711,0.221982 v 1.2209 l 0.111712,0.221982 v 1.220901 l 0.111712,0.221982 v 1.220901 l 0.111712,0.221982 v 1.331896 l 0.111711,0.22198 V 102.08 l 0.111712,0.22198 v 1.33189 l 0.111712,0.22199 v 1.33189 l 0.111711,0.22198 v 1.44288 l 0.111712,0.22199 v 1.44288 l 0.111712,0.22198 v 1.55387 l 0.111712,0.22199 v 1.55387 l 0.111711,0.22198 v 1.55388 l 0.111712,0.22198 v 1.66486 l 0.111712,0.22198 v 1.66487 l 0.111711,0.22198 v 1.77586 l 0.111712,0.22198 v 1.77585 l 0.111712,0.22199 v 1.77585 l 0.111712,0.22198 v 1.88685 l 0.111711,0.22198 v 0.77694 0"
       style="fill:none;stroke:#ff7f0e;stroke-width:1.5;stroke-linecap:square;stroke-linejoin:round;stroke-miterlimit:10;stroke-dasharray:none;stroke-opacity:1"
       id="path142"
       inkscape:connector-curvature="0" /></g></g><g
   id="g144"><g
     id="g146"
     clip-path="url(#clipPath150)"><path
       d="m 116.52973,16.616937 0.44685,2.21982 0.44684,2.774775 v 0.110991 l 0.11171,0.443963 v 0.332973 l 0.11172,0.221982 v 0.443964 l 0.11171,0.221982 v 0.554955 l 0.11171,0.221982 v 0.554955 l 0.11171,0.221982 v 0.554955 l 0.11171,0.221982 v 0.554955 l 0.11172,0.221982 v 0.554955 l 0.11171,0.221982 v 0.554955 l 0.11171,0.221982 v 0.554955 l 0.11171,0.221982 v 0.554955 l 0.11171,0.221982 v 0.554955 l 0.11171,0.221982 v 0.554955 l 0.11172,0.221982 v 0.665946 l 0.11171,0.221982 v 0.554955 l 0.11171,0.221982 v 0.554955 l 0.11171,0.221982 v 0.665946 l 0.11171,0.221981 v 0.554955 l 0.11171,0.221982 v 0.665946 l 0.11172,0.221982 v 0.554955 l 0.11171,0.221982 v 0.665946 l 0.11171,0.221982 v 0.665946 l 0.11171,0.221982 v 0.665946 l 0.11171,0.221982 v 0.554955 l 0.11172,0.221982 v 0.665946 l 0.11171,0.221982 v 0.665946 l 0.11171,0.221982 v 0.665946 l 0.11171,0.221982 v 0.665946 l 0.11171,0.221982 v 0.665946 l 0.11171,0.221982 v 0.665946 l 0.11171,0.221982 v 0.776937 l 0.11172,0.221981 v 0.665946 l 0.11171,0.221982 v 0.665946 l 0.11171,0.221982 v 0.776937 l 0.11171,0.221982 v 0.665946 l 0.11171,0.221982 v 0.665946 l 0.11172,0.221982 v 0.776937 l 0.11171,0.221982 v 0.776937 l 0.11171,0.221982 v 0.665946 l 0.11171,0.221982 v 0.776937 l 0.11171,0.221982 v 0.776937 l 0.11171,0.221982 v 0.776937 l 0.11171,0.221982 v 0.776937 l 0.11172,0.221982 v 0.776937 l 0.11171,0.221981 v 0.776937 l 0.11171,0.221982 v 0.776937 l 0.11171,0.221982 v 0.887928 l 0.11171,0.221982 v 0.776937 l 0.11172,0.221982 v 0.887928 l 0.11171,0.221982 V 65.12 l 0.11171,0.221982 v 0.887928 l 0.11171,0.221982 v 0.887928 l 0.11171,0.221982 v 0.776937 l 0.11171,0.221982 v 0.887928 l 0.11172,0.221982 v 0.887928 l 0.11171,0.221982 v 0.998918 l 0.11171,0.221982 v 0.887928 l 0.11171,0.221982 v 0.887928 l 0.11171,0.221982 v 0.998919 l 0.11171,0.221982 v 0.887928 l 0.11172,0.221982 v 0.998919 l 0.11171,0.221982 v 0.998919 l 0.11171,0.221982 v 0.998919 l 0.11171,0.221982 v 0.998919 l 0.11171,0.221982 v 0.998919 l 0.11172,0.221982 v 0.998918 l 0.11171,0.221982 v 1.10991 l 0.11171,0.221982 v 0.998919 l 0.11171,0.221982 v 1.10991 l 0.11171,0.221982 v 1.10991 l 0.11171,0.221982 v 1.10991 l 0.11172,0.221982 v 1.10991 l 0.11171,0.221982 v 1.220901 l 0.11171,0.221982 v 1.10991 l 0.11171,0.221982 v 1.220901 l 0.11171,0.221981 v 1.220901 l 0.11171,0.221982 v 1.220901 l 0.11172,0.221982 v 1.220899 l 0.11171,0.22198 v 1.2209 l 0.11171,0.22199 v 1.33189 l 0.11171,0.22198 v 1.2209 l 0.11171,0.22198 v 1.3319 l 0.11171,0.22198 v 1.44288 l 0.11171,0.22198 v 1.33189 l 0.11172,0.22199 v 1.33189 l 0.11171,0.22198 v 1.44288 l 0.11171,0.22199 v 1.44288 l 0.11171,0.22198 v 1.55387 l 0.11171,0.22199 v 1.44288 l 0.11172,0.22198 v 1.55388 l 0.11171,0.22198 v 1.55387 l 0.11171,0.22198 v 1.55388 l 0.11171,0.22198 v 1.66486 l 0.11171,0.22198 v 1.66487 0"
       style="fill:none;stroke:#2ca02c;stroke-width:1.5;stroke-linecap:square;stroke-linejoin:round;stroke-miterlimit:10;stroke-dasharray:none;stroke-opacity:1"
       id="path152"
       inkscape:connector-curvature="0" /></g></g><g
   id="g154"><g
     id="g156"
     clip-path="url(#clipPath160)"><path
       d="m 51.513514,15.950991 v 0.332973 l 0.111711,0.221982 v 0.665946 l 0.111712,0.221982 v 0.332973 l 0.111712,0.221982 v 0.332973 l 0.111711,0.221982 v 0.221982 l 0.111712,0.221982 v 0.332973 l 0.111712,0.221982 v 0.221982 l 0.111711,0.221982 v 0.221982 l 0.111712,0.221982 v 0.110991 l 0.111712,0.221982 v 0.221982 l 0.111712,0.221982 v 0.221982 l 0.111711,0.221982 v 0.221982 l 0.111712,0.221981 v 0.110991 l 0.111712,0.221982 v 0.221982 l 0.111711,0.221982 v 0.110991 l 0.111712,0.221982 v 0.221982 l 0.111712,0.221982 v 0.221982 l 0.111712,0.221982 v 0.110991 l 0.111711,0.221982 v 0.221982 l 0.111712,0.221982 v 0.110991 l 0.111712,0.221982 v 0.221982 l 0.111711,0.221982 v 0.110991 l 0.111712,0.221982 v 0.221982 l 0.111712,0.221982 v 0.221982 l 0.111712,0.221982 v 0.110991 l 0.111711,0.221982 v 0.221982 l 0.111712,0.221982 v 0.110991 l 0.111712,0.221982 V 28.16 l 0.111711,0.221982 v 0.221982 l 0.111712,0.221982 v 0.221982 l 0.111712,0.221982 v 0.110991 l 0.111712,0.221982 v 0.221982 l 0.111711,0.221982 v 0.221982 L 55.2,30.490811 v 0.221982 l 0.111712,0.221982 v 0.221982 l 0.111711,0.221982 v 0.221982 l 0.111712,0.221982 v 0.221982 l 0.111712,0.221982 v 0.221982 l 0.111712,0.221982 v 0.221982 l 0.111711,0.221982 v 0.221982 l 0.111712,0.221982 v 0.221982 l 0.111712,0.221982 v 0.221982 l 0.111711,0.221981 v 0.221982 l 0.111712,0.221982 v 0.221982 l 0.111712,0.221982 v 0.332973 l 0.111712,0.221982 v 0.221982 l 0.111711,0.221982 v 0.221982 l 0.111712,0.221982 v 0.332973 l 0.111712,0.221982 v 0.221982 l 0.111711,0.221982 v 0.332973 l 0.111712,0.221982 v 0.221982 l 0.111712,0.221982 v 0.332973 l 0.111712,0.221982 v 0.221982 l 0.111711,0.221982 v 0.332973 l 0.111712,0.221982 v 0.332973 l 0.111712,0.221982 v 0.332973 l 0.111711,0.221982 v 0.332973 l 0.111712,0.221982 v 0.332973 l 0.111712,0.221982 v 0.332973 l 0.111712,0.221982 v 0.332973 l 0.111711,0.221982 v 0.332973 l 0.111712,0.221982 v 0.332973 l 0.111712,0.221982 v 0.443964 l 0.111711,0.221982 v 0.332973 l 0.111712,0.221982 v 0.443964 l 0.111712,0.221981 v 0.332973 l 0.111711,0.221982 v 0.443964 l 0.111712,0.221982 v 0.443964 l 0.111712,0.221982 v 0.443964 l 0.111712,0.221982 v 0.332973 l 0.111711,0.221982 v 0.443964 l 0.111712,0.221982 v 0.554955 l 0.111712,0.221982 v 0.443964 l 0.111711,0.221982 v 0.443964 l 0.111712,0.221982 v 0.554955 l 0.111712,0.221982 v 0.443964 l 0.111712,0.221982 v 0.554955 l 0.111711,0.221982 v 0.443964 l 0.111712,0.221982 v 0.554955 l 0.111712,0.221982 v 0.554955 l 0.111711,0.221982 v 0.554955 l 0.111712,0.221982 v 0.665946 l 0.111712,0.221982 v 0.554954 l 0.111712,0.221982 v 0.665946 l 0.111711,0.221982 v 0.554955 l 0.111712,0.221982 v 0.665946 l 0.111712,0.221982 v 0.665946 l 0.111711,0.221982 v 0.665946 l 0.111712,0.221982 v 0.665946 l 0.111712,0.221982 v 0.776937 l 0.111712,0.221982 v 0.665946 l 0.111711,0.221982 v 0.776937 l 0.111712,0.221982 v 0.776937 l 0.111712,0.221982 v 0.776937 l 0.111711,0.221982 v 0.887928 l 0.111712,0.221982 v 0.776936 l 0.111712,0.221982 v 0.887928 l 0.111712,0.221982 v 0.887928 l 0.111711,0.221982 v 0.887928 l 0.111712,0.221982 v 0.998919 l 0.111712,0.221982 v 0.887928 l 0.111711,0.221982 v 0.998919 l 0.111712,0.221982 v 0.998919 l 0.111712,0.221982 v 1.10991 l 0.111712,0.221982 v 1.10991 l 0.111711,0.221982 v 1.10991 l 0.111712,0.221981 v 1.10991 l 0.111712,0.221982 v 1.220901 l 0.111711,0.221982 v 1.220901 l 0.111712,0.221982 v 1.220901 l 0.111712,0.221982 v 1.331892 l 0.111712,0.221982 v 1.331892 l 0.111711,0.221982 v 1.442883 l 0.111712,0.221982 v 1.442883 l 0.111712,0.221982 v 1.442882 l 0.111711,0.221982 v 1.553874 l 0.111712,0.221982 v 1.553875 l 0.111712,0.22198 v 1.66487 l 0.111711,0.22198 v 1.77585 l 0.111712,0.22199 v 1.77585 l 0.111712,0.22198 v 1.77586 l 0.111712,0.22198 v 1.88685 l 0.111711,0.22198 v 1.99784 l 0.111712,0.22198 v 1.99784 l 0.111712,0.22198 v 2.21982 l 0.111711,0.22198 v 2.21982 l 0.111712,0.22198 v 2.21982 l 0.111712,0.22198 v 2.44181 l 0.111712,0.22198 v 1.2209 0"
       style="fill:none;stroke:#d62728;stroke-width:1.5;stroke-linecap:square;stroke-linejoin:round;stroke-miterlimit:10;stroke-dasharray:none;stroke-opacity:1"
       id="path162"
       inkscape:connector-curvature="0" /></g></g><g
   id="g164"><g
     id="g166"
     clip-path="url(#clipPath170)"><path
       d="m 94.969369,15.950991 v 0.554955 l 0.111712,0.221982 v 1.331892 l 0.111712,0.221982 v 0.776937 l 0.111712,0.221982 v 0.776937 l 0.111711,0.221982 v 0.665946 l 0.111712,0.221982 v 0.665946 l 0.111712,0.221981 v 0.665946 l 0.111711,0.221982 v 0.554955 l 0.111712,0.221982 v 0.554955 l 0.111712,0.221982 v 0.554955 l 0.111711,0.221982 v 0.554955 l 0.111712,0.221982 v 0.554955 l 0.111712,0.221982 v 0.554955 l 0.111712,0.221982 v 0.443964 l 0.111711,0.221982 v 0.554955 l 0.111712,0.221982 v 0.554955 l 0.111712,0.221982 v 0.554955 l 0.111711,0.221982 v 0.443964 l 0.111712,0.221982 v 0.554955 l 0.111712,0.221982 v 0.554955 l 0.111712,0.221982 v 0.554955 l 0.111711,0.221982 v 0.443964 l 0.111712,0.221982 v 0.554954 l 0.111712,0.221982 v 0.554955 l 0.111711,0.221982 v 0.554955 l 0.111712,0.221982 v 0.443964 l 0.111712,0.221982 v 0.554955 l 0.111712,0.221982 v 0.554955 l 0.111711,0.221982 v 0.554955 l 0.111712,0.221982 v 0.554955 l 0.111712,0.221982 v 0.554955 l 0.111711,0.221982 v 0.554955 l 0.111712,0.221982 v 0.554955 l 0.111712,0.221982 v 0.554955 l 0.111712,0.221982 v 0.554955 l 0.111711,0.221982 v 0.554955 l 0.111712,0.221982 v 0.665946 l 0.111712,0.221982 v 0.554955 l 0.111711,0.221981 v 0.554955 l 0.111712,0.221982 v 0.665946 l 0.111712,0.221982 v 0.554955 l 0.111712,0.221982 v 0.665946 l 0.111711,0.221982 v 0.554955 l 0.111712,0.221982 v 0.665946 l 0.111712,0.221982 v 0.665946 l 0.111711,0.221982 v 0.554955 l 0.111714,0.221982 v 0.665946 l 0.11171,0.221982 v 0.665946 l 0.11171,0.221982 v 0.665946 l 0.11171,0.221982 v 0.665946 l 0.11172,0.221982 v 0.665946 l 0.11171,0.221982 v 0.665946 l 0.11171,0.221982 v 0.776936 l 0.11171,0.221982 v 0.665946 l 0.11171,0.221982 v 0.665946 l 0.11171,0.221982 v 0.776937 l 0.11172,0.221982 v 0.776937 l 0.11171,0.221982 v 0.665946 l 0.11171,0.221982 V 65.12 l 0.11171,0.221982 v 0.776937 l 0.11171,0.221982 v 0.776937 l 0.11171,0.221982 v 0.776937 l 0.11171,0.221982 v 0.776937 l 0.11172,0.221982 v 0.887928 l 0.11171,0.221982 v 0.776937 l 0.11171,0.221981 v 0.887928 l 0.11171,0.221982 v 0.776937 l 0.11171,0.221982 v 0.887928 l 0.11172,0.221982 v 0.887928 l 0.11171,0.221982 v 0.887928 l 0.11171,0.221982 v 0.887928 l 0.11171,0.221982 v 0.887928 l 0.11171,0.221982 v 0.998919 l 0.11171,0.221982 v 0.887928 l 0.11172,0.221982 v 0.998919 l 0.11171,0.221982 v 0.998918 l 0.11171,0.221982 v 0.998919 l 0.11171,0.221982 v 0.998919 l 0.11171,0.221982 v 1.10991 l 0.11172,0.221982 v 0.998919 l 0.11171,0.221982 v 1.10991 l 0.11171,0.221982 v 1.10991 l 0.11171,0.221982 v 1.10991 l 0.11171,0.221982 v 1.10991 l 0.11171,0.221982 v 1.10991 l 0.11172,0.221982 v 1.2209 l 0.11171,0.221982 v 1.220901 l 0.11171,0.221982 v 1.220901 L 104.8,99.86018 v 1.2209 l 0.11171,0.22198 v 1.3319 l 0.11171,0.22198 v 1.33189 l 0.11171,0.22198 v 1.33189 l 0.11172,0.22199 v 1.33189 l 0.11171,0.22198 v 1.33189 l 0.11171,0.22198 v 1.44289 l 0.11171,0.22198 v 1.44288 l 0.11171,0.22198 v 1.44289 l 0.11171,0.22198 v 1.55387 l 0.11172,0.22198 v 1.55388 l 0.11171,0.22198 v 1.55387 l 0.11171,0.22199 v 1.66486 l 0.11171,0.22198 v 1.66487 l 0.11171,0.22198 v 1.66486 l 0.11172,0.22198 v 1.66487 0"
       style="fill:none;stroke:#9467bd;stroke-width:1.5;stroke-linecap:square;stroke-linejoin:round;stroke-miterlimit:10;stroke-dasharray:none;stroke-opacity:1"
       id="path172"
       inkscape:connector-curvature="0" /></g></g><g
   id="g174"><g
     id="g176"
     clip-path="url(#clipPath180)"><path
       d="m 71.398198,15.950991 v 0.221982 l 0.111712,0.221982 v 2.996757 l 0.111712,0.221982 v 1.331892 l 0.111711,0.221982 v 0.998918 l 0.111712,0.221982 v 0.887928 l 0.111712,0.221982 v 0.776937 l 0.111711,0.221982 v 0.665946 l 0.111712,0.221982 v 0.665946 l 0.111712,0.221982 v 0.665946 l 0.111712,0.221982 v 0.665946 l 0.111711,0.221982 v 0.554955 l 0.111712,0.221982 v 0.554955 l 0.111712,0.221982 v 0.554955 l 0.111711,0.221982 v 0.554955 l 0.111712,0.221982 v 0.554955 l 0.111712,0.221982 v 0.443964 l 0.111712,0.221982 v 0.554955 l 0.111711,0.221982 v 0.554955 l 0.111712,0.221982 v 0.443963 l 0.111712,0.221982 v 0.554955 l 0.111711,0.221982 v 0.443964 l 0.111712,0.221982 v 0.554955 l 0.111712,0.221982 v 0.443964 l 0.111712,0.221982 v 0.554955 l 0.111711,0.221982 v 0.554955 l 0.111712,0.221982 v 0.443964 l 0.111712,0.221982 V 40.48 l 0.111711,0.221982 v 0.443964 l 0.111712,0.221982 v 0.554955 l 0.111712,0.221982 v 0.554955 l 0.111712,0.221982 v 0.443964 l 0.111711,0.221982 v 0.554955 l 0.111712,0.221982 v 0.554955 l 0.111712,0.221982 v 0.554955 l 0.111711,0.221982 v 0.443964 l 0.111712,0.221982 v 0.554954 l 0.111712,0.221982 v 0.554955 l 0.111712,0.221982 v 0.554955 l 0.111711,0.221982 v 0.554955 l 0.111712,0.221982 v 0.665946 l 0.111712,0.221982 v 0.554955 l 0.111711,0.221982 v 0.554955 l 0.111712,0.221982 v 0.554955 l 0.111712,0.221982 v 0.665946 l 0.111712,0.221982 v 0.554955 l 0.111711,0.221982 v 0.665946 l 0.111712,0.221982 v 0.665946 l 0.111712,0.221982 v 0.554955 l 0.111711,0.221982 v 0.665946 l 0.111712,0.221982 v 0.665946 l 0.111712,0.221982 v 0.665945 l 0.111711,0.221982 v 0.665946 l 0.111712,0.221982 v 0.776937 l 0.111712,0.221982 v 0.665946 l 0.111712,0.221982 v 0.665946 l 0.111711,0.221982 v 0.776937 l 0.111712,0.221982 v 0.776937 l 0.111712,0.221982 v 0.665946 l 0.111711,0.221982 v 0.776937 l 0.111712,0.221982 v 0.887928 l 0.111712,0.221982 v 0.776937 l 0.111712,0.221982 v 0.776937 l 0.111711,0.221982 v 0.887927 l 0.111712,0.221982 v 0.776937 l 0.111712,0.221982 v 0.887928 l 0.111711,0.221982 v 0.887928 l 0.111712,0.221982 v 0.887928 l 0.111712,0.221982 v 0.887928 l 0.111712,0.221982 v 0.998919 l 0.111711,0.221982 v 0.998919 l 0.111712,0.221982 v 0.998919 l 0.111712,0.221982 v 0.998919 l 0.111711,0.221982 v 0.998919 l 0.111712,0.221982 v 0.998918 l 0.111712,0.221982 v 1.10991 l 0.111712,0.221982 v 1.10991 l 0.111711,0.221982 v 1.10991 L 80,88.317117 v 1.10991 l 0.111712,0.221982 v 1.220901 l 0.111711,0.221982 v 1.220901 l 0.111712,0.221982 v 1.220901 l 0.111712,0.221982 v 1.331892 l 0.111712,0.221982 v 1.2209 l 0.111711,0.221982 v 1.331892 l 0.111712,0.221982 v 1.442883 l 0.111712,0.221979 v 1.33189 l 0.111711,0.22199 v 1.55387 l 0.111712,0.22198 v 1.44289 l 0.111712,0.22198 v 1.55387 l 0.111712,0.22198 v 1.55388 l 0.111711,0.22198 v 1.55387 l 0.111712,0.22199 v 1.66486 l 0.111712,0.22198 v 1.77586 L 81.787387,114.4 v 1.66487 l 0.111712,0.22198 v 1.88684 l 0.111712,0.22199 v 1.77585 l 0.111712,0.22198 v 1.99784 l 0.111711,0.22198 v 1.99784 l 0.111712,0.22198 v 1.88685 0"
       style="fill:none;stroke:#8c564b;stroke-width:1.5;stroke-linecap:square;stroke-linejoin:round;stroke-miterlimit:10;stroke-dasharray:none;stroke-opacity:1"
       id="path182"
       inkscape:connector-curvature="0" /></g></g><g
   id="g184"><g
     id="g186"
     clip-path="url(#clipPath190)"><path
       d="m 115.85946,15.950991 v 2.885766 l 0.11171,0.221982 v 2.552793 l 0.11171,0.221982 v 1.775855 l 0.11172,0.221982 v 1.442883 l 0.11171,0.221982 v 1.331892 l 0.11171,0.221982 v 1.220901 l 0.11171,0.221982 v 1.10991 l 0.11171,0.221982 v 0.998919 l 0.11171,0.221982 v 1.10991 l 0.11172,0.221982 v 0.998919 l 0.11171,0.221982 v 0.887927 l 0.11171,0.221982 v 0.998919 L 117.2,35.929369 v 0.887928 l 0.11171,0.221982 v 0.887928 l 0.11171,0.221982 v 0.887928 l 0.11171,0.221982 v 0.887928 l 0.11172,0.221982 v 0.887928 l 0.11171,0.221982 v 0.887928 l 0.11171,0.221982 v 0.887928 l 0.11171,0.221982 v 0.776937 l 0.11171,0.221982 v 0.887928 l 0.11172,0.221982 v 0.887927 l 0.11171,0.221982 v 0.887928 l 0.11171,0.221982 v 0.776937 l 0.11171,0.221982 v 0.887928 l 0.11171,0.221982 v 0.887928 l 0.11171,0.221982 v 0.887928 l 0.11172,0.221982 v 0.887928 l 0.11171,0.221982 v 0.776937 l 0.11171,0.221982 v 0.887928 l 0.11171,0.221982 v 0.887928 l 0.11171,0.221982 v 0.887928 l 0.11171,0.221982 v 0.887928 l 0.11172,0.221982 v 0.887927 l 0.11171,0.221982 v 0.887928 l 0.11171,0.221982 v 0.887928 l 0.11171,0.221982 v 0.998919 l 0.11171,0.221982 v 0.887928 l 0.11172,0.221982 v 0.887928 l 0.11171,0.221982 v 0.998919 l 0.11171,0.221982 v 0.887928 l 0.11171,0.221982 v 0.998919 l 0.11171,0.221982 v 0.998919 l 0.11171,0.221982 v 0.887927 l 0.11171,0.221982 v 0.998919 l 0.11172,0.221982 v 0.998919 l 0.11171,0.221982 v 0.998919 l 0.11171,0.221982 v 1.10991 l 0.11171,0.221982 v 0.998919 l 0.11171,0.221982 v 0.998919 l 0.11172,0.221982 v 1.10991 l 0.11171,0.221982 v 0.998919 l 0.11171,0.221982 v 1.10991 l 0.11171,0.221982 v 1.109909 l 0.11171,0.221982 v 1.10991 l 0.11171,0.221982 v 1.10991 l 0.11171,0.221982 v 1.10991 l 0.11172,0.221982 v 1.220901 l 0.11171,0.221982 v 1.10991 l 0.11171,0.221982 v 1.220901 l 0.11171,0.221982 v 1.220901 l 0.11171,0.221982 v 1.220901 l 0.11172,0.221982 v 1.2209 l 0.11171,0.221982 v 1.331892 l 0.11171,0.221982 v 1.220901 l 0.11171,0.221982 v 1.331891 l 0.11171,0.22198 v 1.3319 l 0.11171,0.22198 v 1.33189 l 0.11172,0.22198 v 1.33189 l 0.11171,0.22199 v 1.44288 l 0.11171,0.22198 v 1.44288 l 0.11171,0.22198 v 1.44289 l 0.11171,0.22198 v 1.44288 l 0.11171,0.22198 v 1.44289 l 0.11172,0.22198 v 1.55387 l 0.11171,0.22199 v 1.55387 l 0.11171,0.22198 v 1.55388 l 0.11171,0.22198 v 1.66486 l 0.11171,0.22198 v 1.55388 l 0.11172,0.22198 v 1.66486 l 0.11171,0.22199 v 1.55387 0"
       style="fill:none;stroke:#e377c2;stroke-width:1.5;stroke-linecap:square;stroke-linejoin:round;stroke-miterlimit:10;stroke-dasharray:none;stroke-opacity:1"
       id="path192"
       inkscape:connector-curvature="0" /></g></g><g
   id="g194"><g
     id="g196"
     clip-path="url(#clipPath200)"><path
       d="m 89.607207,15.950991 v 2.330811 l 0.111712,0.221982 v 3.551711 l 0.111712,0.221982 v 1.997838 l 0.111711,0.221982 v 1.664865 l 0.111712,0.221982 v 1.442883 l 0.111712,0.221982 v 1.331892 l 0.111711,0.221982 v 1.10991 l 0.111712,0.221982 v 1.10991 l 0.111712,0.221982 v 1.10991 l 0.111712,0.221982 v 0.998918 l 0.111711,0.221982 v 0.887928 l 0.111712,0.221982 v 0.998919 l 0.111712,0.221982 v 0.887928 l 0.111711,0.221982 v 0.887928 l 0.111712,0.221982 v 0.887928 L 91.282883,40.48 v 0.776937 l 0.111712,0.221982 v 0.887928 l 0.111711,0.221982 v 0.887928 l 0.111712,0.221982 v 0.776937 l 0.111712,0.221982 v 0.887928 l 0.111711,0.221982 v 0.776937 l 0.111712,0.221981 v 0.776937 l 0.111712,0.221982 v 0.887928 l 0.111712,0.221982 v 0.776937 l 0.111711,0.221982 v 0.887928 L 92.4,51.024144 v 0.776937 l 0.111712,0.221982 V 52.8 l 0.111711,0.221982 v 0.887928 l 0.111712,0.221982 v 0.776937 l 0.111712,0.221982 v 0.887928 l 0.111712,0.221982 v 0.776937 l 0.111711,0.221982 v 0.887928 l 0.111712,0.221982 v 0.887927 l 0.111712,0.221982 v 0.776937 l 0.111711,0.221982 v 0.887928 l 0.111712,0.221982 v 0.887928 l 0.111712,0.221982 v 0.887928 l 0.111712,0.221982 v 0.887928 l 0.111711,0.221982 v 0.887928 l 0.111712,0.221982 v 0.887928 l 0.111712,0.221982 v 0.887928 l 0.111711,0.221982 v 0.998919 l 0.111712,0.221982 v 0.887928 l 0.111712,0.221982 v 0.998918 l 0.111712,0.221982 v 0.998919 l 0.111711,0.221982 v 0.887928 l 0.111712,0.221982 v 0.998919 l 0.111712,0.221982 v 0.998919 l 0.111711,0.221982 v 1.10991 l 0.111712,0.221982 v 0.998919 l 0.111712,0.221982 v 0.998919 l 0.111712,0.221982 v 1.10991 l 0.111711,0.221982 v 1.10991 l 0.111712,0.221982 v 1.109909 l 0.111712,0.221982 v 1.10991 l 0.111711,0.221982 v 1.10991 l 0.111712,0.221982 v 1.220901 l 0.111712,0.221982 v 1.220901 l 0.111711,0.221982 v 1.10991 l 0.111712,0.221982 v 1.220901 l 0.111712,0.221982 v 1.331892 l 0.111712,0.221982 v 1.220901 l 0.111711,0.221982 v 1.331891 l 0.111712,0.221982 v 1.331892 l 0.111712,0.221982 v 1.33189 l 0.111711,0.22198 v 1.44289 l 0.111712,0.22198 v 1.33189 l 0.111712,0.22198 v 1.44289 l 0.111712,0.22198 v 1.55387 l 0.111711,0.22198 v 1.44289 l 0.111712,0.22198 v 1.55387 l 0.111712,0.22198 v 1.55388 l 0.111711,0.22198 v 1.66487 l 0.111712,0.22198 v 1.66486 l 0.111712,0.22198 v 1.66487 l 0.111712,0.22198 v 1.66487 l 0.111711,0.22198 v 1.77585 l 0.111712,0.22198 v 1.88685 l 0.111712,0.22198 v 1.88685 l 0.111711,0.22198 v 0.77694 0"
       style="fill:none;stroke:#7f7f7f;stroke-width:1.5;stroke-linecap:square;stroke-linejoin:round;stroke-miterlimit:10;stroke-dasharray:none;stroke-opacity:1"
       id="path202"
       inkscape:connector-curvature="0" /></g></g><g
   id="g204"><g
     id="g206"
     clip-path="url(#clipPath210)"><path
       d="m 107.03423,15.950991 v 6.659459 l 0.11172,0.221982 v 3.32973 l 0.11171,0.221982 v 2.552793 l 0.11171,0.221982 v 1.997838 l 0.11171,0.221982 v 1.886847 l 0.11171,0.221982 v 1.664864 l 0.11172,0.221982 v 1.553874 l 0.11171,0.221982 v 1.553874 l 0.11171,0.221982 v 1.442883 l 0.11171,0.221982 v 1.331892 l 0.11171,0.221982 v 1.331892 l 0.11171,0.221982 v 1.220901 l 0.11171,0.221982 v 1.220901 l 0.11172,0.221982 v 1.2209 l 0.11171,0.221982 v 1.220901 l 0.11171,0.221982 v 1.220901 l 0.11171,0.221982 v 1.10991 l 0.11171,0.221982 v 1.220901 l 0.11172,0.221982 v 1.10991 l 0.11171,0.221982 v 1.10991 l 0.11171,0.221982 v 1.10991 l 0.11171,0.221982 v 1.220901 l 0.11171,0.221981 v 1.10991 l 0.11171,0.221982 v 1.10991 l 0.11172,0.221982 v 1.10991 l 0.11171,0.221982 v 1.10991 l 0.11171,0.221982 v 1.10991 l 0.11171,0.221982 v 1.220901 l 0.11171,0.221982 v 1.10991 l 0.11171,0.221982 v 1.10991 l 0.11172,0.221982 v 1.220901 l 0.11171,0.221981 v 1.10991 l 0.11171,0.221982 v 1.220901 l 0.11171,0.221982 v 1.10991 l 0.11171,0.221982 v 1.220901 l 0.11171,0.221982 v 1.220901 l 0.11172,0.221982 v 1.220901 l 0.11171,0.221982 v 1.220901 l 0.11171,0.221982 v 1.220901 l 0.11171,0.221982 v 1.2209 l 0.11171,0.221982 v 1.220901 l 0.11171,0.221982 v 1.331892 l 0.11172,0.221982 v 1.331892 l 0.11171,0.221982 v 1.220901 l 0.11171,0.221982 v 1.331892 l 0.11171,0.221982 v 1.442883 l 0.11171,0.221982 v 1.331892 l 0.11172,0.221982 v 1.331891 l 0.11171,0.221982 v 1.442883 l 0.11171,0.221982 v 1.442883 l 0.11171,0.221982 v 1.442881 l 0.11171,0.22198 v 1.44289 l 0.11171,0.22198 v 1.55387 l 0.11172,0.22198 v 1.44289 l 0.11171,0.22198 v 1.55387 l 0.11171,0.22199 v 1.55387 l 0.11171,0.22198 v 1.66487 l 0.11171,0.22198 v 1.66486 l 0.11171,0.22199 v 1.66486 l 0.11172,0.22198 v 1.66487 l 0.11171,0.22198 v 1.66486 l 0.11171,0.22199 v 1.77585 l 0.11171,0.22198 v 1.77586 l 0.11171,0.22198 v 1.88685 l 0.11171,0.22198 v 1.10991 0"
       style="fill:none;stroke:#bcbd22;stroke-width:1.5;stroke-linecap:square;stroke-linejoin:round;stroke-miterlimit:10;stroke-dasharray:none;stroke-opacity:1"
       id="path212"
       inkscape:connector-curvature="0" /></g></g><g
   id="g214"><g
     id="g216"
     clip-path="url(#clipPath220)"><path
       d="m 123.9027,15.950991 v 9.101261 l 0.11171,0.221982 v 4.106667 l 0.11172,0.221982 v 2.996757 l 0.11171,0.221982 v 2.663783 l 0.11171,0.221982 v 2.330811 l 0.11171,0.221982 v 2.108829 l 0.11171,0.221982 v 1.997838 l 0.11172,0.221982 v 1.886847 l 0.11171,0.221982 v 1.775855 l 0.11171,0.221982 v 1.775856 l 0.11171,0.221982 v 1.664865 l 0.11171,0.221982 v 1.553874 l 0.11171,0.221982 v 1.553874 l 0.11172,0.221982 v 1.553874 l 0.11171,0.221982 v 1.553874 l 0.11171,0.221982 v 1.553873 l 0.11171,0.221982 v 1.442883 l 0.11171,0.221982 v 1.442883 l 0.11171,0.221982 v 1.553874 l 0.11172,0.221982 v 1.442883 l 0.11171,0.221982 v 1.442883 l 0.11171,0.221982 v 1.442883 l 0.11171,0.221982 v 1.331892 l 0.11171,0.221981 v 1.442883 l 0.11171,0.221982 v 1.442883 l 0.11171,0.221982 v 1.442883 l 0.11172,0.221982 v 1.442883 l 0.11171,0.221982 v 1.442883 l 0.11171,0.221982 v 1.442883 l 0.11171,0.221982 v 1.442883 l 0.11171,0.221982 v 1.553873 l 0.11172,0.221982 v 1.442883 l 0.11171,0.221982 v 1.442883 l 0.11171,0.221982 v 1.553874 l 0.11171,0.221982 v 1.442883 l 0.11171,0.221982 v 1.553874 l 0.11171,0.221982 v 1.553874 l 0.11172,0.221982 v 1.553873 l 0.11171,0.221982 v 1.553874 l 0.11171,0.221982 v 1.553871 l 0.11171,0.22199 V 102.08 l 0.11171,0.22198 v 1.55388 l 0.11171,0.22198 v 1.66486 l 0.11172,0.22199 v 1.66486 l 0.11171,0.22198 v 1.66487 l 0.11171,0.22198 v 1.77585 l 0.11171,0.22199 v 1.66486 l 0.11171,0.22198 v 1.77586 l 0.11171,0.22198 v 1.77586 l 0.11172,0.22198 v 1.77586 l 0.11171,0.22198 v 1.88684 0"
       style="fill:none;stroke:#17becf;stroke-width:1.5;stroke-linecap:square;stroke-linejoin:round;stroke-miterlimit:10;stroke-dasharray:none;stroke-opacity:1"
       id="path222"
       inkscape:connector-curvature="0" /></g></g><g
   id="g224"><path
     d="M 18,15.84 V 126.72"
     style="fill:none;stroke:#000000;stroke-width:0.80000001;stroke-linecap:square;stroke-linejoin:miter;stroke-miterlimit:10;stroke-dasharray:none;stroke-opacity:1"
     id="path226"
     inkscape:connector-curvature="0" /><path
     d="M 129.6,15.84 V 126.72"
     style="fill:none;stroke:#000000;stroke-width:0.80000001;stroke-linecap:square;stroke-linejoin:miter;stroke-miterlimit:10;stroke-dasharray:none;stroke-opacity:1"
     id="path228"
     inkscape:connector-curvature="0" /><path
     d="M 18,15.84 H 129.6"
     style="fill:none;stroke:#000000;stroke-width:0.80000001;stroke-linecap:square;stroke-linejoin:miter;stroke-miterlimit:10;stroke-dasharray:none;stroke-opacity:1"
     id="path230"
     inkscape:connector-curvature="0" /><path
     d="M 18,126.72 H 129.6"
     style="fill:none;stroke:#000000;stroke-width:0.80000001;stroke-linecap:square;stroke-linejoin:miter;stroke-miterlimit:10;stroke-dasharray:none;stroke-opacity:1"
     id="path232"
     inkscape:connector-curvature="0" /></g></g><g
     inkscape:groupmode="layer"
     id="layer1"
     inkscape:label="axis"
     transform="translate(17.396954,70.675689)"><text
   xml:space="preserve"
   style="font-style:normal;font-variant:normal;font-weight:normal;font-stretch:normal;font-size:16px;line-height:25px;font-family:Arial;-inkscape-font-specification:Arial;letter-spacing:0px;word-spacing:0px;fill:#000000;fill-opacity:1;stroke:none;stroke-width:1px;stroke-linecap:butt;stroke-linejoin:miter;stroke-opacity:1"
   x="-17.451641"
   y="101.10681"
   id="text1061"><tspan
     sodipodi:role="line"
     id="tspan1059"
     x="-17.451641"
     y="101.10681"
     style="font-size:18.66666603px">w</tspan></text>

<text
   id="text1065"
   y="210.08073"
   x="92.802345"
   style="font-style:normal;font-variant:normal;font-weight:normal;font-stretch:normal;font-size:16px;line-height:25px;font-family:Arial;-inkscape-font-specification:Arial;letter-spacing:0px;word-spacing:0px;fill:#000000;fill-opacity:1;stroke:none;stroke-width:1px;stroke-linecap:butt;stroke-linejoin:miter;stroke-opacity:1"
   xml:space="preserve"><tspan
     style="font-size:18.66666603px"
     y="210.08073"
     x="92.802345"
     id="tspan1063"
     sodipodi:role="line">u</tspan></text>

</g><g
     inkscape:groupmode="layer"
     id="layer2"
     inkscape:label="labels"
     transform="translate(-4.1537368e-7,70.675694)"><g
       inkscape:groupmode="layer"
       id="layer3"
       inkscape:label="m_0"
       style="display:inline"><path
   style="fill:none;fill-rule:evenodd;stroke:#000000;stroke-width:1px;stroke-linecap:butt;stroke-linejoin:miter;stroke-opacity:1"
   d="M 81.113537,17.007651 V -54.218587"
   id="path1067"
   inkscape:connector-curvature="0"
   sodipodi:nodetypes="cc" /><use
   x="0"
   y="0"
   xlink:href="#path1073"
   id="use1077"
   width="100%"
   height="100%" /><use
   id="use1087"
   xlink:href="#path1073"
   y="0"
   x="0"
   transform="translate(54.040377)"
   width="100%"
   height="100%" /><path
   inkscape:connector-curvature="0"
   id="path1073"
   d="M 133.14049,17.007651 V -54.218587"
   style="fill:none;fill-rule:evenodd;stroke:#000000;stroke-width:1px;stroke-linecap:butt;stroke-linejoin:miter;stroke-opacity:1"
   sodipodi:nodetypes="cc" /><text
   xml:space="preserve"
   style="font-style:normal;font-variant:normal;font-weight:normal;font-stretch:normal;font-size:16px;line-height:25px;font-family:Arial;-inkscape-font-specification:Arial;letter-spacing:0px;word-spacing:0px;fill:#000000;fill-opacity:1;stroke:none;stroke-width:1px;stroke-linecap:butt;stroke-linejoin:miter;stroke-opacity:1"
   x="73.046249"
   y="-59.175694"
   id="text1120"><tspan
     sodipodi:role="line"
     id="tspan1118"
     x="73.046249"
     y="-59.175694">01</tspan></text>

<text
   id="text1124"
   y="-59.175694"
   x="125.04625"
   style="font-style:normal;font-variant:normal;font-weight:normal;font-stretch:normal;font-size:16px;line-height:25px;font-family:Arial;-inkscape-font-specification:Arial;letter-spacing:0px;word-spacing:0px;fill:#000000;fill-opacity:1;stroke:none;stroke-width:1px;stroke-linecap:butt;stroke-linejoin:miter;stroke-opacity:1"
   xml:space="preserve"><tspan
     y="-59.175694"
     x="125.04625"
     id="tspan1122"
     sodipodi:role="line">02</tspan></text>

<text
   xml:space="preserve"
   style="font-style:normal;font-variant:normal;font-weight:normal;font-stretch:normal;font-size:16px;line-height:25px;font-family:Arial;-inkscape-font-specification:Arial;letter-spacing:0px;word-spacing:0px;fill:#000000;fill-opacity:1;stroke:none;stroke-width:1px;stroke-linecap:butt;stroke-linejoin:miter;stroke-opacity:1"
   x="177.90918"
   y="-59.175694"
   id="text1128"><tspan
     sodipodi:role="line"
     id="tspan1126"
     x="177.90918"
     y="-59.175694">03</tspan></text>

</g><g
       inkscape:groupmode="layer"
       id="layer4"
       inkscape:label="m_1"
       style="display:inline"><path
   inkscape:connector-curvature="0"
   id="path1069"
   d="M 104.55173,17.007651 V -36.218587"
   style="fill:none;fill-rule:evenodd;stroke:#000000;stroke-width:1px;stroke-linecap:butt;stroke-linejoin:miter;stroke-opacity:1"
   sodipodi:nodetypes="cc" /><path
   sodipodi:nodetypes="cc"
   style="fill:none;fill-rule:evenodd;stroke:#000000;stroke-width:1px;stroke-linecap:butt;stroke-linejoin:miter;stroke-opacity:1"
   d="M 159.11353,17.007651 V -36.218587"
   id="path1130"
   inkscape:connector-curvature="0" /><text
   xml:space="preserve"
   style="font-style:normal;font-variant:normal;font-weight:normal;font-stretch:normal;font-size:16px;line-height:25px;font-family:Arial;-inkscape-font-specification:Arial;letter-spacing:0px;word-spacing:0px;display:inline;fill:#000000;fill-opacity:1;stroke:none;stroke-width:1px;stroke-linecap:butt;stroke-linejoin:miter;stroke-opacity:1"
   x="95.691818"
   y="-38.225136"
   id="text1120-1"><tspan
     sodipodi:role="line"
     id="tspan1118-5"
     x="95.691818"
     y="-38.225136">11</tspan></text>

<text
   id="text1152"
   y="-38.225136"
   x="149.40422"
   style="font-style:normal;font-variant:normal;font-weight:normal;font-stretch:normal;font-size:16px;line-height:25px;font-family:Arial;-inkscape-font-specification:Arial;letter-spacing:0px;word-spacing:0px;display:inline;fill:#000000;fill-opacity:1;stroke:none;stroke-width:1px;stroke-linecap:butt;stroke-linejoin:miter;stroke-opacity:1"
   xml:space="preserve"><tspan
     y="-38.225136"
     x="149.40422"
     id="tspan1150"
     sodipodi:role="line">12</tspan></text>

<text
   id="text1158"
   y="-38.225136"
   x="95.691818"
   style="font-style:normal;font-variant:normal;font-weight:normal;font-stretch:normal;font-size:16px;line-height:25px;font-family:Arial;-inkscape-font-specification:Arial;letter-spacing:0px;word-spacing:0px;display:inline;fill:#000000;fill-opacity:1;stroke:none;stroke-width:1px;stroke-linecap:butt;stroke-linejoin:miter;stroke-opacity:1"
   xml:space="preserve"><tspan
     y="-38.225136"
     x="95.691818"
     id="tspan1156"
     sodipodi:role="line">11</tspan></text>

</g><g
       inkscape:groupmode="layer"
       id="layer5"
       inkscape:label="m_2"
       style="display:inline"><path
   style="fill:none;fill-rule:evenodd;stroke:#000000;stroke-width:1px;stroke-linecap:butt;stroke-linejoin:miter;stroke-opacity:1"
   d="m 126.55173,17.007651 -4.88982,-30.376784"
   id="path1071"
   inkscape:connector-curvature="0"
   sodipodi:nodetypes="cc" /><path
   sodipodi:nodetypes="cc"
   inkscape:connector-curvature="0"
   id="path1154"
   d="M 183.41465,17.007651 176.51137,-13.30185"
   style="fill:none;fill-rule:evenodd;stroke:#000000;stroke-width:1px;stroke-linecap:butt;stroke-linejoin:miter;stroke-opacity:1" /><text
   id="text1158-9"
   y="-16.006016"
   x="111.94591"
   style="font-style:normal;font-variant:normal;font-weight:normal;font-stretch:normal;font-size:16px;line-height:25px;font-family:Arial;-inkscape-font-specification:Arial;letter-spacing:0px;word-spacing:0px;display:inline;fill:#000000;fill-opacity:1;stroke:none;stroke-width:1px;stroke-linecap:butt;stroke-linejoin:miter;stroke-opacity:1"
   xml:space="preserve"><tspan
     y="-16.006016"
     x="111.94591"
     id="tspan1156-7"
     sodipodi:role="line">21</tspan></text>

<text
   xml:space="preserve"
   style="font-style:normal;font-variant:normal;font-weight:normal;font-stretch:normal;font-size:16px;line-height:25px;font-family:Arial;-inkscape-font-specification:Arial;letter-spacing:0px;word-spacing:0px;display:inline;fill:#000000;fill-opacity:1;stroke:none;stroke-width:1px;stroke-linecap:butt;stroke-linejoin:miter;stroke-opacity:1"
   x="165.94591"
   y="-16.006016"
   id="text1180"><tspan
     sodipodi:role="line"
     id="tspan1178"
     x="165.94591"
     y="-16.006016">22</tspan></text>

</g><g
       inkscape:groupmode="layer"
       id="layer6"
       inkscape:label="mrest"
       style="display:inline"><path
   style="fill:none;fill-rule:evenodd;stroke:#000000;stroke-width:1px;stroke-linecap:butt;stroke-linejoin:miter;stroke-opacity:1"
   d="M 148.13288,17.007651 V -2.2640053"
   id="path1182"
   inkscape:connector-curvature="0" /><text
   id="text1152-7"
   y="-5.1431055"
   x="139.06895"
   style="font-style:normal;font-variant:normal;font-weight:normal;font-stretch:normal;font-size:16px;line-height:25px;font-family:Arial;-inkscape-font-specification:Arial;letter-spacing:0px;word-spacing:0px;display:inline;fill:#000000;fill-opacity:1;stroke:none;stroke-width:1px;stroke-linecap:butt;stroke-linejoin:miter;stroke-opacity:1"
   xml:space="preserve"><tspan
     y="-5.1431055"
     x="139.06895"
     id="tspan1150-6"
     sodipodi:role="line">31</tspan></text>

<path
   inkscape:connector-curvature="0"
   id="path1202"
   d="M 168.9958,17.007651 V 11.735995"
   style="fill:none;fill-rule:evenodd;stroke:#000000;stroke-width:1px;stroke-linecap:butt;stroke-linejoin:miter;stroke-opacity:1"
   sodipodi:nodetypes="cc" /><text
   xml:space="preserve"
   style="font-style:normal;font-variant:normal;font-weight:normal;font-stretch:normal;font-size:16px;line-height:25px;font-family:Arial;-inkscape-font-specification:Arial;letter-spacing:0px;word-spacing:0px;display:inline;fill:#000000;fill-opacity:1;stroke:none;stroke-width:1px;stroke-linecap:butt;stroke-linejoin:miter;stroke-opacity:1"
   x="161.21698"
   y="9.2387276"
   id="text1206"><tspan
     sodipodi:role="line"
     id="tspan1204"
     x="161.21698"
     y="9.2387276">41</tspan></text>

<path
   style="fill:none;fill-rule:evenodd;stroke:#000000;stroke-width:1px;stroke-linecap:butt;stroke-linejoin:miter;stroke-opacity:1"
   d="M 199.11864,-7.7344143 189.4522,43.018377"
   id="path1208"
   inkscape:connector-curvature="0" /><text
   id="text1212"
   y="-10.286696"
   x="191.72545"
   style="font-style:normal;font-variant:normal;font-weight:normal;font-stretch:normal;font-size:16px;line-height:25px;font-family:Arial;-inkscape-font-specification:Arial;letter-spacing:0px;word-spacing:0px;display:inline;fill:#000000;fill-opacity:1;stroke:none;stroke-width:1px;stroke-linecap:butt;stroke-linejoin:miter;stroke-opacity:1"
   xml:space="preserve"><tspan
     y="-10.286696"
     x="191.72545"
     id="tspan1210"
     sodipodi:role="line">51</tspan></text>

</g></g></svg>